<?xml version="1.0" encoding="utf-8"?>
<!-- Generator: Adobe Illustrator 19.0.0, SVG Export Plug-In . SVG Version: 6.00 Build 0)  -->
<svg version="1.1" id="mrp-board-svg" xmlns="http://www.w3.org/2000/svg" xmlns:xlink="http://www.w3.org/1999/xlink" x="0px" y="0px" width="225px" height="160px" viewBox="0 0 225 160" style="enable-background:new 0 0 225 160;" xml:space="preserve">
    <g id="sections">
        <path id="0x0a" class="mrp-group--inactive" d="M183.022,119.392c-8.514,6.322-20.397,6.18-30.484,6.285
		c-13.021,0.136-26.051,0.428-39.073,0.388c-22.641-0.068-61.787,7.009-80.863-21.657"/>
        <path id="0x0c" class="mrp-group--inactive" d="M181.211,30.41c16.051,10.906,24.516,21.425,24.468,41.52
		c-0.022,9.207,0.183,18.278-3.808,26.815c-4.084,8.737-10.678,15.593-18.849,20.646"/>
        <path id="0x16" class="mrp-group--inactive" d="M105.886,22.274c17.699,0.086,27.255,0.129,44.953,0.215"/>
        <path id="0x11" class="mrp-group--inactive" d="M110.98,41.316c-15.625,15.502-6.026,37.349-16.586,55.063
		c-10.696,17.943-37.75,25.349-57.521,6.744"/>
        <path id="0x0f" class="mrp-group--inactive" d="M149.747,27.407c-12.461,2.619-29.042,5.25-38.766,13.908"/>
        <path id="0x10" class="mrp-group--inactive" d="M66.247,27.162c-14.258,4.884-20.158,6.989-24.805,10.9
		c-13.42,11.295-15.294,20.14-16.459,36.181"/>
        <path id="0x0d" class="mrp-group--inactive" d="M213.19,77.137c0-16.218-0.961-23.185-7.066-35.821c-5.394-11.165-11.369-15.81-18.424-21.18"/>
        <path id="0x08" class="mrp-group--inactive" d="M188.405,140.079c9.947-8.277,13.246-12.276,19.628-24.653
		c6.362-12.341,5.157-24.743,5.157-38.288"/>
        <path id="0x15" class="mrp-group--inactive" d="M65.656,22.274c-6.308,0.582-19.304,1.351-30.459,8.224
		c-14.394,8.869-22.633,24.434-23.192,41.017c-0.336,9.987-0.141,10.453-0.163,20.447"/>
        <path id="0x0e" class="mrp-group--inactive" d="M157.695,10.562c-13.236-0.309-19.218-1.493-32.35,0.492
		c-13.216,1.997-7.396,1.269-20.211,5.001"/>
        <path id="0x09" class="mrp-group--inactive" d="M188.405,16.957c9.919,5.967,25.887,12.654,31.026,26.347c4.28,11.403,2.961,24.97,2.961,36.782
		c0,9.883,0.026,19.767,0.045,29.65c0.027,14.267,0.055,28.534,0.082,42.802"/>
        <path id="0x14" class="mrp-group--inactive" d="M93.662,142.959c-16.784,0.037-36.231,1.807-52.222-3.655
		c-14.05-4.799-16.571-11.054-21.102-17.441"/>
        <path id="0x17" class="mrp-group--inactive" d="M158.126,148.27c-7.821-0.39-12.186-1.432-19.866-2.911
		c-14.885-2.867-29.476-2.433-44.598-2.399"/>
        <path id="0x0b" class="mrp-group--inactive" d="M85.853,151.532c18.647,0.063,54.688,0.194,73.334,0.258"/>
        <path id="0x13" class="mrp-group--inactive" d="M17.283,122.783c16.338,34.773,51.665,28.692,68.57,28.749"/>
    </g>
    <g id="turnouts">
        <polygon id="0x05" class="mrp-group--inactive" points="40.366,102.072 25.869,106.436 16.735,76.727 31.232,72.363 	"/>
        <polygon id="0x06" class="mrp-group--inactive" points="26.149,120.114 11.651,124.478 2.517,94.769 17.014,90.404 	"/>
        <polygon id="0x03" class="mrp-group--inactive" points="160.947,157.63 156.616,143.26 186.689,134.385 191.02,148.755 	"/>
        <polygon id="0x07" class="mrp-group--inactive" points="106.637,28.479 66.975,33.177 64.883,15.881 104.545,11.184 	"/>
        <polygon id="0x01" class="mrp-group--inactive" points="156.345,16.636 159.599,1.991 190.249,8.659 186.995,23.304 	"/>
        <polygon id="0x02" class="mrp-group--inactive" points="149.051,30.539 152.305,15.894 182.955,22.563 179.701,37.208 	"/>
    </g>
</svg>
