<?xml version="1.0" encoding="utf-8"?>
<!-- Generator: Adobe Illustrator 19.0.0, SVG Export Plug-In . SVG Version: 6.00 Build 0)  -->
<svg version="1.1" id="Layer_1" xmlns="http://www.w3.org/2000/svg" xmlns:xlink="http://www.w3.org/1999/xlink" x="0px" y="0px"
	 width="316.583px" height="46.528px" viewBox="0 0 316.583 46.528" style="enable-background:new 0 0 316.583 46.528;"
	 xml:space="preserve">
<style type="text/css">
	.st0{fill:#000036;}
	.st1{fill:#FFFFFF;}
	.st2{fill:#F44336;}
	.st3{fill:none;stroke:#000036;stroke-width:1.6;}
	.st4{fill:none;stroke:#000036;stroke-width:2.6623;}
	.st5{fill:none;stroke:#000036;stroke-width:1.6;stroke-linejoin:round;}
	.st6{fill:none;stroke:#000036;stroke-width:1.7056;}
</style>
<path class="st0" d="M375.15-222.879c0,0,0.187,5.578,4.023,10.449c7.797,3.317,15.676,6.364,26.653,9.125
	c4.215,1.059,10.679,2.711,17.273,4.098v-2.723c-1.023-0.285-2.027-0.57-3-0.875c-11.488-3.625-18.894-6.078-26.523-9.652
	c-9.192-4.301-16.543-9.199-18.227-10.348L375.15-222.879z M139.623-283.754v99.199h283.476v-5.875h-16.601
	c0.425-0.476,0.175-2.199,0.175-2.199s-4.39,0.199-5.199,0.199c-0.808,0,0,0.008-0.5,2.051l-11.375-0.051
	c0,0-0.008-0.066,0.852-1.925c0.855-1.856-3.676-1.575-3.676-1.575s-3.891-0.144-4.176,2c-0.285,2.141-0.898,1.575-0.898,1.575
	l-24.153,0.023c0,0,2.036-1.883,2.75-3.598c0.715-1.714,0-3,0-3l-12.699-1.574c0,0-0.433,3.867-1.574,5.723
	c-1.145,1.859-3.5,2.375-3.5,2.375l-58.152,0.176c0,0-4.434-3.235-2.524-8.825c1.063-3.117,1.703-11.246,19.625-22.75
	c0,0,9.18-2.968,17.649-4.675c8.839-1.782,15.312-2.274,20.953-1.375c10.183,1.625,10.554,4.019,14.172,3.125
	c3.304-0.817,7.703-4.789,8.476-5.5c-0.781-0.832-6.078-6.172-14.25-6.7c-8.855-0.574-11.82,0.012-24.023,3.375
	c-4.813,1.325-13.426,5.426-13.426,5.426s9.773-6.886,19.773-10.828c10-3.937,14.731-3.871,18.903-3.922
	c4.168-0.054,6.992,0.293,10.199,1.524c12.254,4.703,21.781,15.746,32.848,21.726c9.972,5.387,21.652,9.641,30.351,13.149v-77.274
	H139.623z"/>
<g>
	<path class="st1" d="M178.761-239.239l-8.512,18.019h-3.281l-8.475-18.019l-1.125,18.019h-3.562l1.5-26.119h3.487l9.844,21.694
		l9.825-21.694h3.487l1.5,26.119h-3.562L178.761-239.239z"/>
	<path class="st1" d="M208.368-230.315c0,2.9-0.919,5.25-2.756,7.05c-1.8,1.8-4.181,2.7-7.144,2.7c-2.95,0-5.344-0.9-7.181-2.7
		c-1.85-1.812-2.775-4.162-2.775-7.05c0-2.862,0.925-5.181,2.775-6.956c1.837-1.763,4.231-2.644,7.181-2.644
		c2.963,0,5.344,0.881,7.144,2.644C207.449-235.509,208.368-233.19,208.368-230.315z M204.805-230.315
		c0-1.925-0.582-3.469-1.744-4.631c-1.162-1.163-2.694-1.744-4.594-1.744c-1.912,0-3.453,0.584-4.622,1.753
		c-1.169,1.169-1.753,2.709-1.753,4.622c0,1.975,0.587,3.55,1.763,4.725c1.2,1.2,2.737,1.8,4.612,1.8c1.9,0,3.432-0.6,4.594-1.8
		C204.224-226.79,204.805-228.364,204.805-230.315z"/>
	<path class="st1" d="M222.805-247.64c4.112,0,7.425,1.2,9.938,3.6c2.538,2.425,3.806,5.625,3.806,9.6
		c0,4.05-1.244,7.319-3.731,9.806c-2.475,2.475-5.65,3.712-9.525,3.712c-2.388,0-5.55-0.1-9.487-0.3v-26.119
		C217.743-247.539,220.743-247.64,222.805-247.64z M223.292-224.333c2.75,0,5.006-0.919,6.769-2.756
		c1.762-1.837,2.644-4.288,2.644-7.35c0-2.975-0.906-5.35-2.719-7.125c-1.8-1.8-4.194-2.7-7.181-2.7c-1.513,0-3.294,0.05-5.344,0.15
		v19.668C219.336-224.371,221.28-224.333,223.292-224.333z"/>
	<path class="st1" d="M249.625-239.765c2.55,0,4.637,0.757,6.263,2.269c1.6,1.488,2.419,3.469,2.456,5.944
		c0,0.762-0.062,1.656-0.188,2.681h-14.138c0.3,1.575,1,2.815,2.1,3.722c1.1,0.907,2.513,1.359,4.238,1.359
		c1.412,0,3.575-0.331,6.487-0.994l0.544,2.831c-2.738,0.875-5.119,1.312-7.144,1.312c-3.138,0-5.594-0.887-7.369-2.662
		c-1.75-1.825-2.625-4.138-2.625-6.938c0-2.85,0.887-5.144,2.663-6.881C244.674-238.884,246.912-239.765,249.625-239.765z
		 M243.906-231.59h11.25c-0.013-1.625-0.522-2.928-1.528-3.91c-1.006-0.981-2.315-1.472-3.928-1.472
		c-1.601,0-2.913,0.484-3.938,1.453C244.737-234.549,244.118-233.239,243.906-231.59z"/>
	<path class="st1" d="M282.139-246.102l-0.957,3.225c-3.387-1.025-6.344-1.538-8.868-1.538c-1.726,0-3.085,0.356-4.078,1.069
		c-0.994,0.712-1.491,1.725-1.491,3.038c0,1.138,0.488,1.981,1.463,2.531c0.987,0.538,2.712,1.062,5.175,1.575
		c1.638,0.338,2.972,0.682,4.003,1.031c1.031,0.35,1.991,0.8,2.879,1.35c1.762,1.062,2.644,2.807,2.644,5.231
		c0,2.55-0.919,4.519-2.757,5.906c-1.812,1.362-4.243,2.043-7.293,2.043c-3.663,0-7.301-0.731-10.913-2.193l0.919-3.413
		c3.537,1.45,6.919,2.175,10.144,2.175c1.938,0,3.46-0.362,4.565-1.087c1.106-0.725,1.66-1.756,1.66-3.094
		c0-1.562-0.794-2.663-2.382-3.3c-0.725-0.338-1.406-0.591-2.044-0.76c-0.637-0.168-1.638-0.39-3-0.666l-0.806-0.15
		c-2.913-0.612-5.007-1.431-6.281-2.456c-1.237-1.025-1.856-2.562-1.856-4.613c0-2.3,0.869-4.131,2.606-5.494
		c1.75-1.375,4.068-2.062,6.956-2.062C275.801-247.752,279.039-247.202,282.139-246.102z"/>
</g>
<path class="st2" d="M284.162-261.48h11.449v1.476l-5.352,6.074h0.375c3.481,0.208,5.625,1.985,5.625,4.75
	c0,3.278-2.476,5.5-6.699,5.5c-2.047,0-4.18-0.476-6.074-1.449l0.824-1.926c1.742,0.793,3.582,1.278,5.324,1.278
	c2.356,0,4.153-1.406,4.153-3.328c0-1.789-1.59-2.797-4.176-2.797h-2.777v-1.153l5.453-6.222h-8.125V-261.48z M289.861-269.605
	c-9.395,0-17,7.633-17,17.027c0,9.395,7.605,17,17,17c9.391,0,17-7.605,17-17C306.861-261.972,299.252-269.605,289.861-269.605z"/>
<rect x="267.189" y="-170.383" class="st0" width="155.902" height="155.906"/>
<g>
	<path class="st1" d="M303.201-132.758l-7.448,15.767h-2.871l-7.416-15.767l-0.984,15.767h-3.117l1.312-22.854h3.052l8.613,18.982
		l8.597-18.982h3.052l1.312,22.854h-3.117L303.201-132.758z"/>
	<path class="st1" d="M329.106-124.948c0,2.538-0.804,4.594-2.411,6.169c-1.575,1.575-3.659,2.362-6.251,2.362
		c-2.582,0-4.676-0.788-6.284-2.362c-1.618-1.586-2.428-3.643-2.428-6.169c0-2.504,0.81-4.534,2.428-6.087
		c1.608-1.542,3.702-2.313,6.284-2.313c2.592,0,4.676,0.771,6.251,2.313C328.302-129.493,329.106-127.464,329.106-124.948z
		 M325.989-124.948c0-1.684-0.509-3.035-1.525-4.052c-1.018-1.017-2.357-1.526-4.02-1.526c-1.674,0-3.021,0.511-4.044,1.534
		c-1.023,1.022-1.534,2.371-1.534,4.044c0,1.729,0.514,3.106,1.542,4.134c1.05,1.05,2.396,1.575,4.036,1.575
		c1.662,0,3.002-0.525,4.02-1.575C325.48-121.864,325.989-123.242,325.989-124.948z"/>
	<path class="st1" d="M341.739-140.108c3.599,0,6.497,1.05,8.695,3.15c2.221,2.122,3.33,4.922,3.33,8.4
		c0,3.544-1.088,6.404-3.265,8.581c-2.165,2.166-4.943,3.249-8.334,3.249c-2.09,0-4.856-0.088-8.302-0.263v-22.854
		C337.309-140.02,339.934-140.108,341.739-140.108z M342.166-119.715c2.406,0,4.38-0.804,5.923-2.412
		c1.542-1.608,2.312-3.751,2.312-6.431c0-2.603-0.793-4.681-2.379-6.234c-1.574-1.575-3.669-2.362-6.283-2.362
		c-1.323,0-2.882,0.043-4.676,0.131v17.21C338.704-119.748,340.404-119.715,342.166-119.715z"/>
	<path class="st1" d="M365.206-133.217c2.231,0,4.058,0.662,5.479,1.985c1.4,1.302,2.116,3.035,2.149,5.201
		c0,0.667-0.055,1.45-0.164,2.346H360.3c0.263,1.378,0.875,2.464,1.837,3.257c0.963,0.793,2.199,1.189,3.708,1.189
		c1.236,0,3.128-0.29,5.677-0.87l0.476,2.478c-2.396,0.765-4.479,1.148-6.251,1.148c-2.745,0-4.895-0.777-6.447-2.33
		c-1.531-1.597-2.297-3.62-2.297-6.07c0-2.494,0.776-4.5,2.33-6.021C360.875-132.446,362.833-133.217,365.206-133.217z
		 M360.202-126.064h9.844c-0.011-1.421-0.457-2.562-1.337-3.42c-0.881-0.859-2.026-1.288-3.438-1.288
		c-1.4,0-2.549,0.424-3.445,1.271S360.387-127.508,360.202-126.064z"/>
	<path class="st1" d="M393.656-138.762l-0.836,2.822c-2.965-0.896-5.552-1.345-7.761-1.345c-1.509,0-2.698,0.312-3.568,0.935
		c-0.869,0.624-1.304,1.509-1.304,2.658c0,0.996,0.426,1.734,1.279,2.215c0.864,0.471,2.373,0.93,4.528,1.378
		c1.433,0.295,2.601,0.596,3.503,0.902s1.741,0.7,2.518,1.181c1.543,0.93,2.313,2.456,2.313,4.577c0,2.231-0.804,3.954-2.411,5.168
		c-1.586,1.192-3.714,1.789-6.383,1.789c-3.204,0-6.388-0.64-9.548-1.92l0.804-2.986c3.095,1.269,6.054,1.903,8.876,1.903
		c1.695,0,3.026-0.317,3.995-0.952c0.968-0.634,1.451-1.537,1.451-2.707c0-1.367-0.694-2.33-2.083-2.888
		c-0.635-0.295-1.23-0.517-1.788-0.664c-0.559-0.148-1.434-0.342-2.625-0.583l-0.706-0.131c-2.549-0.536-4.38-1.252-5.496-2.149
		c-1.083-0.896-1.624-2.242-1.624-4.036c0-2.012,0.76-3.615,2.28-4.807c1.531-1.203,3.561-1.805,6.087-1.805
		C388.111-140.206,390.944-139.725,393.656-138.762z"/>
</g>
<path class="st2" d="M400.408-146.258h11.449v1.477l-5.352,6.074h0.375c3.485,0.203,5.625,1.985,5.625,4.75
	c0,3.277-2.476,5.5-6.699,5.5c-2.047,0-4.18-0.476-6.074-1.449l0.824-1.926c1.742,0.793,3.586,1.274,5.324,1.274
	c2.356,0,4.153-1.403,4.153-3.325c0-1.789-1.59-2.8-4.176-2.8h-2.777v-1.149l5.453-6.226h-8.125V-146.258z M406.107-154.383
	c-9.395,0-17,7.633-17,17.028c0,9.39,7.605,17,17,17s17-7.61,17-17C423.107-146.75,415.502-154.383,406.107-154.383z"/>
<path class="st1" d="M398.111-70.035c0,0,1.277,0.66,1.625,0.848l-1-0.344c0,0,0.234,6.98,5.039,13.078
	c9.754,4.152,19.613,7.961,33.351,11.418c6.739,1.695,18.067,4.602,28.469,6.477c11.973,2.156,22.653,3.16,22.653,3.16l1.25-2.004
	c0,0-20.137-2.453-34.512-6.988c-14.375-4.536-23.637-7.622-33.188-12.09C408.767-62.582,398.111-70.035,398.111-70.035z
	 M383.38-78.512c0,0-6.933-7.871-18.019-8.585c-11.082-0.715-14.801,0.027-30.078,4.234c-6.02,1.656-16.801,6.789-16.801,6.789
	s12.246-8.617,24.762-13.547c12.515-4.934,18.422-4.863,23.64-4.934c5.219-0.066,8.739,0.368,12.754,1.911
	c15.336,5.882,27.258,19.699,41.106,27.183c13.851,7.485,30.394,13.231,41.476,17.879c11.086,4.649,30.035,7.508,30.035,7.508
	l0.586,3.461l0.129,7.715l-55.004-0.02c0.532-0.594,0.215-2.742,0.215-2.742s-5.5,0.254-6.508,0.254c-1.011,0,0,0-0.625,2.555
	l-14.238-0.043c0,0,0-0.094,1.074-2.418c1.071-2.325-4.605-1.969-4.605-1.969s-4.871-0.176-5.227,2.504
	c-0.359,2.683-1.117,1.976-1.117,1.976l-30.223,0.02c0,0,2.555-2.352,3.45-4.5c0.894-2.145,0-3.754,0-3.754L364.252-39
	c0,0-0.54,4.828-1.969,7.153c-1.43,2.32-4.387,2.98-4.387,2.98l-72.758,0.219c0,0-5.566-4.071-3.179-11.067
	c1.332-3.894,2.156-14.058,24.585-28.457c0,0,11.477-3.707,22.079-5.843c11.058-2.231,19.156-2.844,26.211-1.715
	c12.746,2.035,13.203,5.011,17.73,3.89c4.531-1.117,10.992-7.207,10.992-7.207"/>
<g>
	<path class="st1" d="M24.626,21.623l-7.449,15.767h-2.871L6.891,21.623L5.906,37.389H2.789l1.312-22.854h3.052l8.613,18.982
		l8.597-18.982h3.052l1.312,22.854H25.61L24.626,21.623z"/>
	<path class="st1" d="M50.531,29.432c0,2.538-0.804,4.594-2.412,6.169c-1.575,1.575-3.659,2.362-6.25,2.362
		c-2.582,0-4.676-0.788-6.284-2.362c-1.619-1.586-2.428-3.643-2.428-6.169c0-2.504,0.809-4.534,2.428-6.087
		c1.608-1.542,3.702-2.313,6.284-2.313c2.592,0,4.676,0.771,6.25,2.313C49.728,24.888,50.531,26.917,50.531,29.432z M47.414,29.432
		c0-1.684-0.508-3.035-1.525-4.052c-1.018-1.017-2.357-1.526-4.02-1.526c-1.674,0-3.022,0.511-4.044,1.534
		c-1.023,1.022-1.534,2.371-1.534,4.044c0,1.729,0.514,3.106,1.542,4.134c1.05,1.05,2.396,1.575,4.036,1.575
		c1.662,0,3.002-0.525,4.02-1.575C46.906,32.517,47.414,31.138,47.414,29.432z"/>
	<path class="st1" d="M63.164,14.273c3.598,0,6.497,1.05,8.695,3.15c2.22,2.122,3.331,4.922,3.331,8.4
		c0,3.544-1.088,6.404-3.265,8.581c-2.166,2.166-4.944,3.249-8.334,3.249c-2.089,0-4.856-0.088-8.302-0.263V14.535
		C58.734,14.361,61.359,14.273,63.164,14.273z M63.591,34.666c2.406,0,4.38-0.804,5.922-2.412c1.542-1.608,2.313-3.751,2.313-6.431
		c0-2.603-0.793-4.681-2.379-6.234c-1.575-1.575-3.67-2.362-6.284-2.362c-1.324,0-2.882,0.043-4.676,0.131v17.21
		C60.129,34.633,61.83,34.666,63.591,34.666z"/>
	<path class="st1" d="M86.631,21.164c2.231,0,4.058,0.662,5.479,1.985c1.4,1.302,2.117,3.035,2.149,5.201
		c0,0.667-0.055,1.45-0.164,2.346h-12.37c0.262,1.378,0.875,2.464,1.837,3.257c0.962,0.793,2.198,1.189,3.708,1.189
		c1.236,0,3.128-0.29,5.677-0.87l0.476,2.478c-2.395,0.765-4.479,1.148-6.25,1.148c-2.746,0-4.895-0.777-6.448-2.33
		c-1.531-1.597-2.297-3.62-2.297-6.07c0-2.494,0.776-4.5,2.33-6.021C82.3,21.935,84.258,21.164,86.631,21.164z M81.627,28.317h9.844
		c-0.011-1.421-0.457-2.562-1.337-3.42c-0.881-0.859-2.026-1.288-3.438-1.288c-1.4,0-2.548,0.424-3.445,1.271
		S81.813,26.873,81.627,28.317z"/>
	<path class="st1" d="M115.081,15.618l-0.837,2.822c-2.964-0.896-5.551-1.345-7.76-1.345c-1.509,0-2.699,0.312-3.568,0.935
		c-0.869,0.624-1.304,1.509-1.304,2.658c0,0.996,0.427,1.734,1.28,2.215c0.864,0.471,2.373,0.93,4.528,1.378
		c1.433,0.295,2.6,0.596,3.502,0.902s1.742,0.7,2.519,1.181c1.542,0.93,2.313,2.456,2.313,4.577c0,2.231-0.804,3.954-2.412,5.168
		c-1.586,1.192-3.713,1.789-6.382,1.789c-3.205,0-6.388-0.64-9.548-1.92l0.804-2.986c3.095,1.269,6.054,1.903,8.876,1.903
		c1.695,0,3.027-0.317,3.995-0.952c0.968-0.634,1.452-1.537,1.452-2.707c0-1.367-0.695-2.33-2.083-2.888
		c-0.635-0.295-1.23-0.517-1.789-0.664c-0.558-0.148-1.433-0.342-2.625-0.583l-0.706-0.131c-2.548-0.536-4.38-1.252-5.496-2.149
		c-1.083-0.896-1.624-2.242-1.624-4.036c0-2.012,0.76-3.615,2.28-4.807c1.531-1.203,3.561-1.805,6.087-1.805
		C109.536,14.175,112.368,14.656,115.081,15.618z"/>
	<path class="st1" d="M173.946,15.11l-0.607,3.019c-2.669-0.667-4.949-1.001-6.841-1.001c-3.041,0-5.42,0.81-7.137,2.428
		c-1.673,1.608-2.51,3.735-2.51,6.382c0,2.702,0.837,4.873,2.51,6.513c1.695,1.63,3.938,2.445,6.727,2.445
		c2.1,0,4.61-0.377,7.53-1.132l0.607,2.789c-2.833,0.897-5.589,1.346-8.269,1.346c-3.795,0-6.831-1.088-9.105-3.265
		c-2.264-2.198-3.396-5.097-3.396-8.695c0-3.577,1.143-6.458,3.429-8.646c2.297-2.166,5.354-3.249,9.171-3.249
		C168.636,14.043,171.267,14.399,173.946,15.11z"/>
	<path class="st1" d="M195.274,29.432c0,2.538-0.804,4.594-2.411,6.169c-1.575,1.575-3.659,2.362-6.251,2.362
		c-2.582,0-4.676-0.788-6.284-2.362c-1.619-1.586-2.428-3.643-2.428-6.169c0-2.504,0.809-4.534,2.428-6.087
		c1.608-1.542,3.702-2.313,6.284-2.313c2.592,0,4.676,0.771,6.251,2.313C194.471,24.888,195.274,26.917,195.274,29.432z
		 M192.157,29.432c0-1.684-0.509-3.035-1.525-4.052c-1.018-1.017-2.357-1.526-4.02-1.526c-1.674,0-3.022,0.511-4.044,1.534
		c-1.023,1.022-1.534,2.371-1.534,4.044c0,1.729,0.514,3.106,1.542,4.134c1.05,1.05,2.396,1.575,4.036,1.575
		c1.662,0,3.002-0.525,4.02-1.575C191.648,32.517,192.157,31.138,192.157,29.432z"/>
	<path class="st1" d="M208.515,21.197c2.001,0,3.582,0.558,4.741,1.673s1.739,2.642,1.739,4.577v9.942h-3.068v-9.105
		c0-1.334-0.361-2.384-1.083-3.15s-1.712-1.148-2.97-1.148c-1.553,0-3.259,0.131-5.118,0.394v13.01h-3.052V21.968
		C202.329,21.453,205.266,21.197,208.515,21.197z"/>
	<path class="st1" d="M230.876,34.863l0.345,2.559c-1.477,0.317-2.757,0.476-3.839,0.476c-3.719,0-5.578-2.029-5.578-6.087v-7.35
		h-3.495v-2.756h3.495v-6.283h3.101v6.283h5.364v2.756h-5.364v7.055c0,1.247,0.24,2.163,0.722,2.748
		c0.481,0.585,1.258,0.878,2.33,0.878C228.601,35.142,229.574,35.049,230.876,34.863z"/>
	<path class="st1" d="M244.444,21.229v3.052c-2.242,0-4.293,0.093-6.152,0.279v12.83h-3.052V22.132
		C238.543,21.53,241.611,21.229,244.444,21.229z"/>
	<path class="st1" d="M264.689,29.432c0,2.538-0.804,4.594-2.411,6.169c-1.575,1.575-3.659,2.362-6.25,2.362
		c-2.582,0-4.676-0.788-6.284-2.362c-1.618-1.586-2.428-3.643-2.428-6.169c0-2.504,0.81-4.534,2.428-6.087
		c1.608-1.542,3.702-2.313,6.284-2.313c2.591,0,4.675,0.771,6.25,2.313C263.885,24.888,264.689,26.917,264.689,29.432z
		 M261.572,29.432c0-1.684-0.509-3.035-1.525-4.052c-1.018-1.017-2.357-1.526-4.019-1.526c-1.674,0-3.021,0.511-4.044,1.534
		c-1.023,1.022-1.534,2.371-1.534,4.044c0,1.729,0.514,3.106,1.542,4.134c1.05,1.05,2.396,1.575,4.036,1.575
		c1.662,0,3.001-0.525,4.019-1.575C261.063,32.517,261.572,31.138,261.572,29.432z"/>
	<path class="st1" d="M272.351,13.535v23.854h-3.068V13.535H272.351z"/>
	<path class="st1" d="M281.309,13.535v23.854h-3.068V13.535H281.309z"/>
	<path class="st1" d="M294.089,21.164c2.231,0,4.058,0.662,5.479,1.985c1.4,1.302,2.116,3.035,2.149,5.201
		c0,0.667-0.055,1.45-0.164,2.346h-12.37c0.263,1.378,0.875,2.464,1.837,3.257c0.963,0.793,2.199,1.189,3.708,1.189
		c1.236,0,3.128-0.29,5.677-0.87l0.476,2.478c-2.396,0.765-4.479,1.148-6.251,1.148c-2.745,0-4.895-0.777-6.447-2.33
		c-1.531-1.597-2.297-3.62-2.297-6.07c0-2.494,0.776-4.5,2.33-6.021C289.758,21.935,291.716,21.164,294.089,21.164z M289.085,28.317
		h9.844c-0.011-1.421-0.457-2.562-1.337-3.42c-0.881-0.859-2.026-1.288-3.438-1.288c-1.4,0-2.549,0.424-3.445,1.271
		S289.271,26.873,289.085,28.317z"/>
	<path class="st1" d="M315.352,21.229v3.052c-2.242,0-4.293,0.093-6.152,0.279v12.83h-3.052V22.132
		C309.451,21.53,312.519,21.229,315.352,21.229z"/>
</g>
<path class="st2" d="M121.831,8.125h11.449v1.473l-5.347,6.078h0.375c3.48,0.203,5.625,1.984,5.625,4.75c0,3.273-2.477,5.5-6.7,5.5
	c-2.05,0-4.183-0.481-6.078-1.453l0.828-1.922c1.739,0.793,3.582,1.273,5.325,1.273c2.355,0,4.148-1.406,4.148-3.324
	c0-1.793-1.59-2.801-4.176-2.801h-2.773v-1.148l5.449-6.227h-8.125V8.125z M127.53,0c-9.39,0-17,7.633-17,17.023
	c0,9.395,7.61,17,17,17c9.395,0,17-7.605,17-17C144.53,7.633,136.925,0,127.53,0z"/>
<rect x="418.259" y="170.969" class="st0" width="28.348" height="28.348"/>
<polyline class="st3" points="404.087,128.449 474.869,128.359 474.951,185.141 446.607,185.141 "/>
<rect x="375.74" y="114.278" class="st0" width="28.348" height="28.344"/>
<rect x="503.298" y="57.582" class="st2" width="28.348" height="28.348"/>
<polyline class="st3" points="474.951,185.141 517.474,185.141 517.474,85.93 "/>
<g>
	<path class="st0" d="M400.696,89.935l-8.513,18.019h-3.281l-8.475-18.019l-1.125,18.019h-3.562l1.5-26.119h3.487l9.844,21.694
		l9.825-21.694h3.487l1.5,26.119h-3.562L400.696,89.935z"/>
	<path class="st0" d="M430.302,98.86c0,2.9-0.919,5.25-2.757,7.05c-1.8,1.8-4.181,2.7-7.144,2.7c-2.95,0-5.344-0.9-7.181-2.7
		c-1.851-1.812-2.775-4.162-2.775-7.05c0-2.862,0.925-5.181,2.775-6.956c1.837-1.763,4.23-2.644,7.181-2.644
		c2.963,0,5.344,0.881,7.144,2.644C429.383,93.666,430.302,95.985,430.302,98.86z M426.74,98.86c0-1.925-0.581-3.469-1.744-4.631
		c-1.162-1.163-2.693-1.744-4.594-1.744c-1.912,0-3.453,0.584-4.622,1.753c-1.169,1.169-1.753,2.709-1.753,4.622
		c0,1.975,0.588,3.55,1.763,4.725c1.2,1.2,2.737,1.8,4.612,1.8c1.9,0,3.432-0.6,4.594-1.8
		C426.159,102.385,426.74,100.81,426.74,98.86z"/>
	<path class="st0" d="M444.74,81.535c4.112,0,7.425,1.2,9.938,3.6c2.537,2.425,3.807,5.625,3.807,9.6
		c0,4.05-1.244,7.319-3.731,9.806c-2.476,2.475-5.65,3.712-9.525,3.712c-2.388,0-5.55-0.1-9.487-0.3V81.835
		C439.677,81.636,442.677,81.535,444.74,81.535z M445.227,104.842c2.75,0,5.007-0.919,6.769-2.756
		c1.763-1.837,2.645-4.288,2.645-7.35c0-2.975-0.907-5.35-2.719-7.125c-1.801-1.8-4.194-2.7-7.182-2.7
		c-1.513,0-3.294,0.05-5.344,0.15v19.668C441.271,104.804,443.214,104.842,445.227,104.842z"/>
	<path class="st0" d="M471.559,89.41c2.55,0,4.638,0.757,6.263,2.269c1.6,1.488,2.419,3.469,2.456,5.944
		c0,0.762-0.062,1.656-0.188,2.681h-14.138c0.3,1.575,1,2.815,2.101,3.722c1.1,0.907,2.512,1.359,4.237,1.359
		c1.412,0,3.574-0.331,6.487-0.994l0.544,2.831c-2.737,0.875-5.119,1.312-7.144,1.312c-3.138,0-5.595-0.887-7.369-2.662
		c-1.75-1.825-2.625-4.138-2.625-6.938c0-2.85,0.888-5.144,2.662-6.881C466.609,90.291,468.846,89.41,471.559,89.41z M465.84,97.585
		h11.25c-0.013-1.625-0.522-2.928-1.528-3.91c-1.006-0.981-2.315-1.472-3.928-1.472c-1.601,0-2.913,0.484-3.938,1.453
		C466.671,94.626,466.053,95.935,465.84,97.585z"/>
	<path class="st0" d="M504.074,83.073l-0.957,3.225c-3.387-1.025-6.344-1.538-8.868-1.538c-1.726,0-3.085,0.356-4.078,1.069
		c-0.994,0.712-1.491,1.725-1.491,3.038c0,1.138,0.488,1.981,1.463,2.531c0.987,0.538,2.712,1.062,5.175,1.575
		c1.638,0.338,2.972,0.682,4.003,1.031c1.031,0.35,1.991,0.8,2.879,1.35c1.762,1.062,2.644,2.807,2.644,5.231
		c0,2.55-0.919,4.519-2.757,5.906c-1.812,1.362-4.243,2.043-7.293,2.043c-3.663,0-7.301-0.731-10.913-2.193l0.919-3.413
		c3.537,1.45,6.919,2.175,10.144,2.175c1.938,0,3.46-0.362,4.565-1.087c1.106-0.725,1.66-1.756,1.66-3.094
		c0-1.562-0.794-2.663-2.382-3.3c-0.725-0.338-1.406-0.591-2.044-0.76c-0.637-0.168-1.638-0.39-3-0.666l-0.806-0.15
		c-2.913-0.612-5.007-1.431-6.281-2.456c-1.237-1.025-1.856-2.562-1.856-4.613c0-2.3,0.869-4.131,2.606-5.494
		c1.75-1.375,4.068-2.062,6.956-2.062C497.736,81.423,500.973,81.973,504.074,83.073z"/>
</g>
<g>
	<path class="st1" d="M524.659,62.49l-6.688,7.594h0.484c2.177,0.125,3.888,0.714,5.133,1.766c1.244,1.052,1.867,2.443,1.867,4.172
		c0,2.094-0.745,3.761-2.234,5c-1.459,1.24-3.5,1.859-6.125,1.859c-2.709,0-5.245-0.599-7.609-1.797l1.062-2.406
		c2.239,1.052,4.458,1.578,6.656,1.578c1.458,0,2.682-0.385,3.672-1.156c1-0.812,1.5-1.802,1.5-2.969
		c0-1.104-0.464-1.969-1.391-2.594c-0.928-0.625-2.198-0.938-3.812-0.938h-3.5v-1.438l6.828-7.781h-10.156v-2.75h14.312V62.49z"/>
</g>
<rect x="91.119" y="296.527" class="st4" width="181.59" height="39.859"/>
<rect x="61.443" y="195.984" class="st5" width="28.348" height="28.348"/>
<rect x="132.31" y="465.273" class="st5" width="28.344" height="28.348"/>
<rect x="330.732" y="266.851" class="st5" width="28.348" height="28.344"/>
<line class="st3" x1="132.31" y1="295.195" x2="89.791" y2="224.332"/>
<line class="st3" x1="146.482" y1="465.273" x2="189.002" y2="337.715"/>
<line class="st6" x1="330.279" y1="281.48" x2="272.009" y2="296.59"/>
<rect x="244.462" y="291.629" class="st1" width="19.199" height="21.898"/>
<path class="st2" d="M248.634,295.219h11.45v1.476l-5.348,6.075h0.375c3.48,0.207,5.625,1.984,5.625,4.75
	c0,3.277-2.477,5.5-6.703,5.5c-2.047,0-4.18-0.477-6.074-1.45l0.824-1.925c1.742,0.793,3.586,1.277,5.328,1.277
	c2.355,0,4.148-1.406,4.148-3.328c0-1.789-1.59-2.797-4.175-2.797h-2.774v-1.152l5.449-6.223h-8.125V295.219z M254.334,287.094
	c-9.391,0-17,7.633-17,17.027c0,9.391,7.609,17,17,17c9.394,0,17-7.609,17-17C271.334,294.727,263.728,287.094,254.334,287.094z"/>
<g>
	<path class="st0" d="M142.34,311.378l-8.512,18.019h-3.281l-8.475-18.019l-1.125,18.019h-3.562l1.5-26.119h3.487l9.844,21.694
		l9.825-21.694h3.487l1.5,26.119h-3.562L142.34,311.378z"/>
	<path class="st0" d="M171.947,320.303c0,2.9-0.919,5.25-2.756,7.05c-1.8,1.8-4.181,2.7-7.144,2.7c-2.95,0-5.344-0.9-7.181-2.7
		c-1.85-1.812-2.775-4.162-2.775-7.05c0-2.862,0.925-5.182,2.775-6.956c1.837-1.763,4.231-2.644,7.181-2.644
		c2.963,0,5.344,0.881,7.144,2.644C171.028,315.109,171.947,317.428,171.947,320.303z M168.384,320.303
		c0-1.925-0.582-3.469-1.744-4.631c-1.162-1.163-2.694-1.744-4.594-1.744c-1.912,0-3.453,0.584-4.622,1.753
		c-1.169,1.169-1.753,2.71-1.753,4.622c0,1.976,0.587,3.55,1.763,4.725c1.2,1.2,2.737,1.801,4.612,1.801
		c1.9,0,3.432-0.601,4.594-1.801C167.803,323.828,168.384,322.253,168.384,320.303z"/>
	<path class="st0" d="M186.384,302.977c4.112,0,7.425,1.2,9.938,3.601c2.538,2.425,3.806,5.625,3.806,9.6
		c0,4.05-1.244,7.319-3.731,9.807c-2.475,2.475-5.65,3.712-9.525,3.712c-2.388,0-5.55-0.1-9.487-0.3v-26.119
		C181.322,303.078,184.322,302.977,186.384,302.977z M186.872,326.284c2.75,0,5.006-0.919,6.769-2.757
		c1.762-1.837,2.644-4.287,2.644-7.35c0-2.975-0.906-5.35-2.719-7.125c-1.8-1.8-4.194-2.7-7.181-2.7c-1.513,0-3.294,0.05-5.344,0.15
		v19.669C182.916,326.246,184.859,326.284,186.872,326.284z"/>
	<path class="st0" d="M213.204,310.852c2.55,0,4.637,0.757,6.263,2.269c1.6,1.488,2.418,3.469,2.456,5.944
		c0,0.763-0.062,1.656-0.188,2.681h-14.138c0.3,1.575,1,2.816,2.1,3.723s2.513,1.359,4.238,1.359c1.412,0,3.575-0.331,6.487-0.994
		l0.544,2.831c-2.738,0.875-5.119,1.312-7.144,1.312c-3.138,0-5.594-0.888-7.369-2.662c-1.75-1.825-2.625-4.138-2.625-6.938
		c0-2.851,0.887-5.144,2.663-6.882C208.253,311.734,210.491,310.852,213.204,310.852z M207.485,319.027h11.25
		c-0.013-1.624-0.522-2.928-1.528-3.909s-2.315-1.472-3.928-1.472c-1.601,0-2.913,0.484-3.938,1.453
		C208.316,316.068,207.697,317.378,207.485,319.027z"/>
	<path class="st0" d="M245.718,304.515l-0.956,3.225c-3.388-1.024-6.344-1.537-8.869-1.537c-1.725,0-3.084,0.355-4.078,1.068
		c-0.994,0.713-1.491,1.725-1.491,3.037c0,1.138,0.487,1.981,1.462,2.531c0.987,0.538,2.712,1.062,5.175,1.575
		c1.638,0.338,2.972,0.682,4.003,1.031c1.031,0.351,1.99,0.8,2.878,1.351c1.763,1.062,2.644,2.806,2.644,5.23
		c0,2.551-0.919,4.52-2.756,5.906c-1.812,1.363-4.244,2.044-7.294,2.044c-3.663,0-7.3-0.731-10.913-2.193l0.919-3.413
		c3.537,1.45,6.919,2.176,10.144,2.176c1.938,0,3.459-0.363,4.566-1.088c1.106-0.725,1.659-1.756,1.659-3.094
		c0-1.562-0.794-2.662-2.381-3.3c-0.725-0.338-1.406-0.591-2.043-0.76c-0.638-0.169-1.638-0.391-3-0.665l-0.806-0.15
		c-2.913-0.612-5.006-1.432-6.281-2.456c-1.238-1.025-1.856-2.562-1.856-4.612c0-2.3,0.869-4.132,2.606-5.494
		c1.75-1.375,4.068-2.062,6.956-2.062C239.38,302.865,242.618,303.415,245.718,304.515z"/>
</g>
</svg>
