<?xml version="1.0" encoding="utf-8"?>
<!-- Generator: Adobe Illustrator 19.0.0, SVG Export Plug-In . SVG Version: 6.00 Build 0)  -->
<svg version="1.1" id="Layer_1" xmlns="http://www.w3.org/2000/svg" xmlns:xlink="http://www.w3.org/1999/xlink" x="0px" y="0px"
	 width="201px" height="10px" viewBox="0 0 201 10" style="enable-background:new 0 0 201 10;" xml:space="preserve">
<style type="text/css">
	.st0{fill:none;stroke:#000000;stroke-linecap:round;stroke-miterlimit:10;}
	.st1{fill:none;stroke:#000000;stroke-width:0.75;stroke-linecap:round;stroke-miterlimit:10;}
</style>
<line id="XMLID_27_" class="st0" x1="100.5" y1="0.502" x2="100.5" y2="9.502"/>
<g id="XMLID_28_">
	<g id="XMLID_681_">
		<line id="XMLID_682_" class="st1" x1="200.5" y1="0.422" x2="200.5" y2="5.422"/>
	</g>
	<g id="XMLID_678_">
		<line id="XMLID_679_" class="st1" x1="198.5" y1="0.422" x2="198.5" y2="5.422"/>
	</g>
	<g id="XMLID_675_">
		<line id="XMLID_676_" class="st1" x1="196.5" y1="0.422" x2="196.5" y2="5.422"/>
	</g>
	<g id="XMLID_672_">
		<line id="XMLID_673_" class="st1" x1="194.5" y1="0.422" x2="194.5" y2="5.422"/>
	</g>
	<g id="XMLID_669_">
		<line id="XMLID_670_" class="st1" x1="192.5" y1="0.422" x2="192.5" y2="5.422"/>
	</g>
	<g id="XMLID_666_">
		<line id="XMLID_667_" class="st1" x1="190.5" y1="0.422" x2="190.5" y2="5.422"/>
	</g>
	<g id="XMLID_663_">
		<line id="XMLID_664_" class="st1" x1="188.5" y1="0.422" x2="188.5" y2="5.422"/>
	</g>
	<g id="XMLID_660_">
		<line id="XMLID_661_" class="st1" x1="186.5" y1="0.422" x2="186.5" y2="5.422"/>
	</g>
	<g id="XMLID_657_">
		<line id="XMLID_658_" class="st1" x1="184.5" y1="0.422" x2="184.5" y2="5.422"/>
	</g>
	<g id="XMLID_654_">
		<line id="XMLID_655_" class="st1" x1="182.5" y1="0.422" x2="182.5" y2="5.422"/>
	</g>
	<g id="XMLID_651_">
		<line id="XMLID_652_" class="st1" x1="180.5" y1="0.422" x2="180.5" y2="5.422"/>
	</g>
	<g id="XMLID_648_">
		<line id="XMLID_649_" class="st1" x1="178.5" y1="0.422" x2="178.5" y2="5.422"/>
	</g>
	<g id="XMLID_645_">
		<line id="XMLID_646_" class="st1" x1="176.5" y1="0.422" x2="176.5" y2="5.422"/>
	</g>
	<g id="XMLID_642_">
		<line id="XMLID_643_" class="st1" x1="174.5" y1="0.422" x2="174.5" y2="5.422"/>
	</g>
	<g id="XMLID_639_">
		<line id="XMLID_640_" class="st1" x1="172.5" y1="0.422" x2="172.5" y2="5.422"/>
	</g>
	<g id="XMLID_636_">
		<line id="XMLID_637_" class="st1" x1="170.5" y1="0.422" x2="170.5" y2="5.422"/>
	</g>
	<g id="XMLID_633_">
		<line id="XMLID_634_" class="st1" x1="168.5" y1="0.422" x2="168.5" y2="5.422"/>
	</g>
	<g id="XMLID_630_">
		<line id="XMLID_631_" class="st1" x1="166.5" y1="0.422" x2="166.5" y2="5.422"/>
	</g>
	<g id="XMLID_627_">
		<line id="XMLID_628_" class="st1" x1="164.5" y1="0.422" x2="164.5" y2="5.422"/>
	</g>
	<g id="XMLID_624_">
		<line id="XMLID_625_" class="st1" x1="162.5" y1="0.422" x2="162.5" y2="5.422"/>
	</g>
	<g id="XMLID_621_">
		<line id="XMLID_622_" class="st1" x1="160.5" y1="0.422" x2="160.5" y2="5.422"/>
	</g>
	<g id="XMLID_618_">
		<line id="XMLID_619_" class="st1" x1="158.5" y1="0.422" x2="158.5" y2="5.422"/>
	</g>
	<g id="XMLID_615_">
		<line id="XMLID_616_" class="st1" x1="156.5" y1="0.422" x2="156.5" y2="5.422"/>
	</g>
	<g id="XMLID_612_">
		<line id="XMLID_613_" class="st1" x1="154.5" y1="0.422" x2="154.5" y2="5.422"/>
	</g>
	<g id="XMLID_609_">
		<line id="XMLID_610_" class="st1" x1="152.5" y1="0.422" x2="152.5" y2="5.422"/>
	</g>
	<g id="XMLID_606_">
		<line id="XMLID_607_" class="st1" x1="150.5" y1="0.422" x2="150.5" y2="5.422"/>
	</g>
	<g id="XMLID_603_">
		<line id="XMLID_604_" class="st1" x1="148.5" y1="0.422" x2="148.5" y2="5.422"/>
	</g>
	<g id="XMLID_600_">
		<line id="XMLID_601_" class="st1" x1="146.5" y1="0.422" x2="146.5" y2="5.422"/>
	</g>
	<g id="XMLID_597_">
		<line id="XMLID_598_" class="st1" x1="144.5" y1="0.422" x2="144.5" y2="5.422"/>
	</g>
	<g id="XMLID_594_">
		<line id="XMLID_595_" class="st1" x1="142.5" y1="0.422" x2="142.5" y2="5.422"/>
	</g>
	<g id="XMLID_591_">
		<line id="XMLID_592_" class="st1" x1="140.5" y1="0.422" x2="140.5" y2="5.422"/>
	</g>
	<g id="XMLID_588_">
		<line id="XMLID_589_" class="st1" x1="138.5" y1="0.422" x2="138.5" y2="5.422"/>
	</g>
	<g id="XMLID_585_">
		<line id="XMLID_586_" class="st1" x1="136.5" y1="0.422" x2="136.5" y2="5.422"/>
	</g>
	<g id="XMLID_582_">
		<line id="XMLID_583_" class="st1" x1="134.5" y1="0.422" x2="134.5" y2="5.422"/>
	</g>
	<g id="XMLID_579_">
		<line id="XMLID_580_" class="st1" x1="132.5" y1="0.422" x2="132.5" y2="5.422"/>
	</g>
	<g id="XMLID_576_">
		<line id="XMLID_577_" class="st1" x1="130.5" y1="0.422" x2="130.5" y2="5.422"/>
	</g>
	<g id="XMLID_573_">
		<line id="XMLID_574_" class="st1" x1="128.5" y1="0.422" x2="128.5" y2="5.422"/>
	</g>
	<g id="XMLID_570_">
		<line id="XMLID_571_" class="st1" x1="126.5" y1="0.422" x2="126.5" y2="5.422"/>
	</g>
	<g id="XMLID_567_">
		<line id="XMLID_568_" class="st1" x1="124.5" y1="0.422" x2="124.5" y2="5.422"/>
	</g>
	<g id="XMLID_564_">
		<line id="XMLID_565_" class="st1" x1="122.5" y1="0.422" x2="122.5" y2="5.422"/>
	</g>
	<g id="XMLID_561_">
		<line id="XMLID_562_" class="st1" x1="120.5" y1="0.422" x2="120.5" y2="5.422"/>
	</g>
	<g id="XMLID_558_">
		<line id="XMLID_559_" class="st1" x1="118.5" y1="0.422" x2="118.5" y2="5.422"/>
	</g>
	<g id="XMLID_555_">
		<line id="XMLID_556_" class="st1" x1="116.5" y1="0.422" x2="116.5" y2="5.422"/>
	</g>
	<g id="XMLID_552_">
		<line id="XMLID_553_" class="st1" x1="114.5" y1="0.422" x2="114.5" y2="5.422"/>
	</g>
	<g id="XMLID_549_">
		<line id="XMLID_550_" class="st1" x1="112.5" y1="0.422" x2="112.5" y2="5.422"/>
	</g>
	<g id="XMLID_546_">
		<line id="XMLID_547_" class="st1" x1="110.5" y1="0.422" x2="110.5" y2="5.422"/>
	</g>
	<g id="XMLID_543_">
		<line id="XMLID_544_" class="st1" x1="108.5" y1="0.422" x2="108.5" y2="5.422"/>
	</g>
	<g id="XMLID_540_">
		<line id="XMLID_541_" class="st1" x1="106.5" y1="0.422" x2="106.5" y2="5.422"/>
	</g>
	<g id="XMLID_537_">
		<line id="XMLID_538_" class="st1" x1="104.5" y1="0.422" x2="104.5" y2="5.422"/>
	</g>
	<g id="XMLID_534_">
		<line id="XMLID_535_" class="st1" x1="102.5" y1="0.422" x2="102.5" y2="5.422"/>
	</g>
	<g id="XMLID_531_">
		<line id="XMLID_532_" class="st1" x1="100.5" y1="0.422" x2="100.5" y2="5.422"/>
	</g>
	<g id="XMLID_528_">
		<line id="XMLID_529_" class="st1" x1="98.5" y1="0.422" x2="98.5" y2="5.422"/>
	</g>
	<g id="XMLID_525_">
		<line id="XMLID_526_" class="st1" x1="96.5" y1="0.422" x2="96.5" y2="5.422"/>
	</g>
	<g id="XMLID_522_">
		<line id="XMLID_523_" class="st1" x1="94.5" y1="0.422" x2="94.5" y2="5.422"/>
	</g>
	<g id="XMLID_519_">
		<line id="XMLID_520_" class="st1" x1="92.5" y1="0.422" x2="92.5" y2="5.422"/>
	</g>
	<g id="XMLID_516_">
		<line id="XMLID_517_" class="st1" x1="90.5" y1="0.422" x2="90.5" y2="5.422"/>
	</g>
	<g id="XMLID_513_">
		<line id="XMLID_514_" class="st1" x1="88.5" y1="0.422" x2="88.5" y2="5.422"/>
	</g>
	<g id="XMLID_510_">
		<line id="XMLID_511_" class="st1" x1="86.5" y1="0.422" x2="86.5" y2="5.422"/>
	</g>
	<g id="XMLID_507_">
		<line id="XMLID_508_" class="st1" x1="84.5" y1="0.422" x2="84.5" y2="5.422"/>
	</g>
	<g id="XMLID_504_">
		<line id="XMLID_505_" class="st1" x1="82.5" y1="0.422" x2="82.5" y2="5.422"/>
	</g>
	<g id="XMLID_501_">
		<line id="XMLID_502_" class="st1" x1="80.5" y1="0.422" x2="80.5" y2="5.422"/>
	</g>
	<g id="XMLID_498_">
		<line id="XMLID_499_" class="st1" x1="78.5" y1="0.422" x2="78.5" y2="5.422"/>
	</g>
	<g id="XMLID_495_">
		<line id="XMLID_496_" class="st1" x1="76.5" y1="0.422" x2="76.5" y2="5.422"/>
	</g>
	<g id="XMLID_492_">
		<line id="XMLID_493_" class="st1" x1="74.5" y1="0.422" x2="74.5" y2="5.422"/>
	</g>
	<g id="XMLID_489_">
		<line id="XMLID_490_" class="st1" x1="72.5" y1="0.422" x2="72.5" y2="5.422"/>
	</g>
	<g id="XMLID_486_">
		<line id="XMLID_487_" class="st1" x1="70.5" y1="0.422" x2="70.5" y2="5.422"/>
	</g>
	<g id="XMLID_483_">
		<line id="XMLID_484_" class="st1" x1="68.5" y1="0.422" x2="68.5" y2="5.422"/>
	</g>
	<g id="XMLID_480_">
		<line id="XMLID_481_" class="st1" x1="66.5" y1="0.422" x2="66.5" y2="5.422"/>
	</g>
	<g id="XMLID_477_">
		<line id="XMLID_478_" class="st1" x1="64.5" y1="0.422" x2="64.5" y2="5.422"/>
	</g>
	<g id="XMLID_474_">
		<line id="XMLID_475_" class="st1" x1="62.5" y1="0.422" x2="62.5" y2="5.422"/>
	</g>
	<g id="XMLID_471_">
		<line id="XMLID_472_" class="st1" x1="60.5" y1="0.422" x2="60.5" y2="5.422"/>
	</g>
	<g id="XMLID_468_">
		<line id="XMLID_469_" class="st1" x1="58.5" y1="0.422" x2="58.5" y2="5.422"/>
	</g>
	<g id="XMLID_465_">
		<line id="XMLID_466_" class="st1" x1="56.5" y1="0.422" x2="56.5" y2="5.422"/>
	</g>
	<g id="XMLID_462_">
		<line id="XMLID_463_" class="st1" x1="54.5" y1="0.422" x2="54.5" y2="5.422"/>
	</g>
	<g id="XMLID_459_">
		<line id="XMLID_460_" class="st1" x1="52.5" y1="0.422" x2="52.5" y2="5.422"/>
	</g>
	<g id="XMLID_456_">
		<line id="XMLID_457_" class="st1" x1="50.5" y1="0.422" x2="50.5" y2="5.422"/>
	</g>
	<g id="XMLID_453_">
		<line id="XMLID_454_" class="st1" x1="48.5" y1="0.422" x2="48.5" y2="5.422"/>
	</g>
	<g id="XMLID_450_">
		<line id="XMLID_451_" class="st1" x1="46.5" y1="0.422" x2="46.5" y2="5.422"/>
	</g>
	<g id="XMLID_447_">
		<line id="XMLID_448_" class="st1" x1="44.5" y1="0.422" x2="44.5" y2="5.422"/>
	</g>
	<g id="XMLID_444_">
		<line id="XMLID_445_" class="st1" x1="42.5" y1="0.422" x2="42.5" y2="5.422"/>
	</g>
	<g id="XMLID_441_">
		<line id="XMLID_442_" class="st1" x1="40.5" y1="0.422" x2="40.5" y2="5.422"/>
	</g>
	<g id="XMLID_438_">
		<line id="XMLID_439_" class="st1" x1="38.5" y1="0.422" x2="38.5" y2="5.422"/>
	</g>
	<g id="XMLID_435_">
		<line id="XMLID_436_" class="st1" x1="36.5" y1="0.422" x2="36.5" y2="5.422"/>
	</g>
	<g id="XMLID_432_">
		<line id="XMLID_433_" class="st1" x1="34.5" y1="0.422" x2="34.5" y2="5.422"/>
	</g>
	<g id="XMLID_429_">
		<line id="XMLID_430_" class="st1" x1="32.5" y1="0.422" x2="32.5" y2="5.422"/>
	</g>
	<g id="XMLID_426_">
		<line id="XMLID_427_" class="st1" x1="30.5" y1="0.422" x2="30.5" y2="5.422"/>
	</g>
	<g id="XMLID_423_">
		<line id="XMLID_424_" class="st1" x1="28.5" y1="0.422" x2="28.5" y2="5.422"/>
	</g>
	<g id="XMLID_420_">
		<line id="XMLID_421_" class="st1" x1="26.5" y1="0.422" x2="26.5" y2="5.422"/>
	</g>
	<g id="XMLID_417_">
		<line id="XMLID_418_" class="st1" x1="24.5" y1="0.422" x2="24.5" y2="5.422"/>
	</g>
	<g id="XMLID_414_">
		<line id="XMLID_415_" class="st1" x1="22.5" y1="0.422" x2="22.5" y2="5.422"/>
	</g>
	<g id="XMLID_411_">
		<line id="XMLID_412_" class="st1" x1="20.5" y1="0.422" x2="20.5" y2="5.422"/>
	</g>
	<g id="XMLID_408_">
		<line id="XMLID_409_" class="st1" x1="18.5" y1="0.422" x2="18.5" y2="5.422"/>
	</g>
	<g id="XMLID_405_">
		<line id="XMLID_406_" class="st1" x1="16.5" y1="0.422" x2="16.5" y2="5.422"/>
	</g>
	<g id="XMLID_402_">
		<line id="XMLID_403_" class="st1" x1="14.5" y1="0.422" x2="14.5" y2="5.422"/>
	</g>
	<g id="XMLID_399_">
		<line id="XMLID_400_" class="st1" x1="12.5" y1="0.422" x2="12.5" y2="5.422"/>
	</g>
	<g id="XMLID_396_">
		<line id="XMLID_397_" class="st1" x1="10.5" y1="0.422" x2="10.5" y2="5.422"/>
	</g>
	<g id="XMLID_393_">
		<line id="XMLID_394_" class="st1" x1="8.5" y1="0.422" x2="8.5" y2="5.422"/>
	</g>
	<g id="XMLID_390_">
		<line id="XMLID_391_" class="st1" x1="6.5" y1="0.422" x2="6.5" y2="5.422"/>
	</g>
	<g id="XMLID_387_">
		<line id="XMLID_388_" class="st1" x1="4.5" y1="0.422" x2="4.5" y2="5.422"/>
	</g>
	<g id="XMLID_384_">
		<line id="XMLID_385_" class="st1" x1="2.5" y1="0.422" x2="2.5" y2="5.422"/>
	</g>
	<g id="XMLID_381_">
		<line id="XMLID_382_" class="st1" x1="0.5" y1="0.422" x2="0.5" y2="5.422"/>
	</g>
</g>
<line id="XMLID_38_" class="st0" x1="0.5" y1="0.502" x2="0.5" y2="9.502"/>
<line id="XMLID_43_" class="st0" x1="200.5" y1="0.502" x2="200.5" y2="9.502"/>
<g id="XMLID_51_">
</g>
<g id="XMLID_71_">
</g>
<g id="XMLID_72_">
</g>
<g id="XMLID_73_">
</g>
<g id="XMLID_74_">
</g>
<g id="XMLID_75_">
</g>
</svg>
