<?xml version="1.0" encoding="UTF-8" standalone="no"?>
<!-- Created with Inkscape (http://www.inkscape.org/) -->

<svg
   xmlns:osb="http://www.openswatchbook.org/uri/2009/osb"
   xmlns:dc="http://purl.org/dc/elements/1.1/"
   xmlns:cc="http://creativecommons.org/ns#"
   xmlns:rdf="http://www.w3.org/1999/02/22-rdf-syntax-ns#"
   xmlns:svg="http://www.w3.org/2000/svg"
   xmlns="http://www.w3.org/2000/svg"
   xmlns:xlink="http://www.w3.org/1999/xlink"
   xmlns:sodipodi="http://sodipodi.sourceforge.net/DTD/sodipodi-0.dtd"
   xmlns:inkscape="http://www.inkscape.org/namespaces/inkscape"
   id="svg3153"
   version="1.1"
   inkscape:version="0.48.5 r10040"
   width="2153"
   height="1447"
   sodipodi:docname="layout.svg">
  <metadata
     id="metadata3159">
    <rdf:RDF>
      <cc:Work
         rdf:about="">
        <dc:format>image/svg+xml</dc:format>
        <dc:type
           rdf:resource="http://purl.org/dc/dcmitype/StillImage" />
        <dc:title />
      </cc:Work>
    </rdf:RDF>
  </metadata>
  <defs
     id="defs3157">
    <linearGradient
       id="linearGradient5234"
       osb:paint="solid">
      <stop
         style="stop-color:#ff0000;stop-opacity:1;"
         offset="0"
         id="stop5236" />
    </linearGradient>
    <linearGradient
       inkscape:collect="always"
       xlink:href="#linearGradient5234"
       id="linearGradient5238"
       x1="1122.4193"
       y1="106.99755"
       x2="1322.4974"
       y2="106.99755"
       gradientUnits="userSpaceOnUse" />
  </defs>
  <sodipodi:namedview
     pagecolor="#ffffff"
     bordercolor="#666666"
     borderopacity="1"
     objecttolerance="10"
     gridtolerance="10"
     guidetolerance="10"
     inkscape:pageopacity="0"
     inkscape:pageshadow="2"
     inkscape:window-width="1536"
     inkscape:window-height="803"
     id="namedview3155"
     showgrid="false"
     inkscape:zoom="1.0076019"
     inkscape:cx="114.3332"
     inkscape:cy="1064.9171"
     inkscape:window-x="-8"
     inkscape:window-y="-8"
     inkscape:window-maximized="1"
     inkscape:current-layer="svg3153"
     showguides="true"
     inkscape:guide-bbox="true" />
  <g
     inkscape:groupmode="layer"
     id="layer1"
     inkscape:label="rails">
    <path
       style="fill:none;stroke:#a8a8a8;stroke-width:28;stroke-linecap:butt;stroke-linejoin:miter;stroke-miterlimit:0;stroke-opacity:1;stroke-dasharray:none"
       d="m 156.9187,629.35236 -0.24811,83.41873 c 2.88917,34.21479 6.65953,58.62664 12.80734,80.17745 5.25483,17.94568 8.21956,32.57771 22.4567,67.89643 6.10998,15.05573 13.36007,26.40609 20.35139,38.59746"
       id="0x84K"
       inkscape:connector-curvature="0"
       sodipodi:nodetypes="ccccc"
       inkscape:label="#path4050" />
    <path
       style="fill:none;stroke:#000000;stroke-width:28;stroke-linecap:butt;stroke-linejoin:miter;stroke-miterlimit:0;stroke-opacity:1;stroke-dasharray:none"
       d="m 157.30418,620.53275 c 0.44822,-26.23975 -0.67071,-49.40501 15.21279,-108.80158 9.78517,-36.05922 25.61511,-70.01311 46.07864,-106.07233 16.04964,-24.67436 39.50585,-54.09202 66.73532,-80.62969 23.92743,-25.3797 46.14179,-40.48094 68.23131,-54.83317 3.63039,-1.14731 18.63494,-17.61735 88.82476,-42.67558 48.4793,-14.45944 124.93233,-32.64974 189.20776,-50.02587 l 3.50886,-1.05266"
       id="0x10"
       inkscape:connector-curvature="0"
       sodipodi:nodetypes="cccccccc"
       inkscape:label="#path3015" />
  </g>
  <path
     style="fill:none;stroke:#000000;stroke-width:28;stroke-linecap:butt;stroke-linejoin:miter;stroke-miterlimit:0;stroke-opacity:1;stroke-dasharray:none"
     d="m 112.14746,1167.1276 c 20.34514,31.9239 43.01953,60.5926 81.38135,100.2379 41.61529,39.6772 79.62718,63.2212 113.13991,82.3739 44.5569,20.7879 79.63735,36.8567 138.94376,47.6378 l 59.54733,4.9623 261.01577,0"
     id="0x13"
     inkscape:connector-curvature="0"
     sodipodi:nodetypes="cccccc"
     inkscape:label="#path3942" />
  <path
     style="fill:none;stroke:#000000;stroke-width:28;stroke-linecap:butt;stroke-linejoin:miter;stroke-miterlimit:0;stroke-opacity:1;stroke-dasharray:none"
     d="m 628.72051,143.16169 -117.10974,0 c -85.26138,2.20352 -144.21534,25.1341 -198.98731,51.35957 -64.88055,30.05053 -112.21855,74.3596 -153.88047,120.20752 -43.53274,58.06423 -74.436285,112.12196 -88.037845,158.03089 -16.470404,49.10542 -21.865224,89.2449 -24.563639,127.20158 l 0,250.35714"
     id="0x15"
     inkscape:connector-curvature="0"
     sodipodi:nodetypes="ccccccc"
     inkscape:label="#path3998" />
  <path
     style="fill:none;stroke:#000000;stroke-width:28;stroke-linecap:butt;stroke-linejoin:miter;stroke-miterlimit:0;stroke-opacity:1;stroke-dasharray:none"
     d="m 835.89558,1310.2893 -365.2236,0 c -3.66224,-0.2881 -21.00551,-1.5197 -51.80289,-3.6792 -17.03021,-3.7537 -35.59678,-4.8806 -60.34457,-12.9445 -14.73588,-5.4603 -15.83374,-3.8036 -57.06619,-21.0896 -32.62013,-14.0115 -61.05631,-33.8805 -89.07287,-54.337 -18.06096,-14.3461 -36.85967,-30.7578 -59.54733,-58.0586 -15.90895,-17.8489 -29.03174,-36.6266 -39.32652,-56.3469"
     id="0x14"
     inkscape:connector-curvature="0"
     sodipodi:nodetypes="cccccccc"
     inkscape:label="#path4000" />
  <path
     style="fill:none;stroke:#000000;stroke-width:28;stroke-linecap:butt;stroke-linejoin:miter;stroke-miterlimit:0;stroke-opacity:1;stroke-dasharray:none"
     d="m 846.06825,1310.5447 270.80185,0 c 31.3521,2.7826 94.683,8.7628 132.1369,17.6473 l 123.8069,29.2463 c 49.2345,8.976 78.4904,14.4245 160.1192,13.8929"
     id="0x17"
     inkscape:connector-curvature="0"
     sodipodi:nodetypes="ccccc"
     inkscape:label="#path4002" />
  <path
     style="fill:none;stroke:#000000;stroke-width:28;stroke-linecap:butt;stroke-linejoin:miter;stroke-miterlimit:0;stroke-opacity:1;stroke-dasharray:none"
     d="M 1479.7383,1402.8432 776.472,1402.58"
     id="0x0B"
     inkscape:connector-curvature="0"
     sodipodi:nodetypes="cc"
     inkscape:label="#path4004" />
  <path
     style="fill:none;stroke:#000000;stroke-width:28;stroke-linecap:butt;stroke-linejoin:miter;stroke-miterlimit:0;stroke-opacity:1;stroke-dasharray:none"
     d="m 215.51333,904.49024 c 13.12747,21.15198 26.49417,42.26978 44.16426,62.77281 23.09971,25.2103 40.60125,46.00565 71.80252,70.34905 32.53166,24.031 65.42864,47.7697 107.12736,64.467 58.34506,24.9624 114.98967,36.8879 170.53059,40.3519 77.31594,-0.4726 85.67851,-4.6091 187.125,-6.0252 l 738.07304,-0.9925 c 63.8301,-1.8633 140.2628,-27.2433 178.3814,-51.5367"
     id="0x0A"
     inkscape:connector-curvature="0"
     sodipodi:nodetypes="cccccccc"
     inkscape:label="#path4006" />
  <path
     style="fill:none;stroke:#000000;stroke-width:28;stroke-linecap:butt;stroke-linejoin:miter;stroke-miterlimit:0;stroke-opacity:1;stroke-dasharray:none"
     d="m 1719.8012,1080.7839 c 34.6117,-20.3805 70.7592,-50.1601 103.5097,-85.29091 41.8971,-47.36617 64.9879,-96.41243 74.2639,-121.13977 12.5702,-28.20935 18.7604,-51.0117 23.8937,-78.42714 7.3914,-33.6894 5.8834,-40.57398 7.3084,-60.51662 l -1.4035,-164.9884 c -2.8618,-38.58394 -9.0941,-74.67838 -26.8815,-126.3222 -18.653,-48.56398 -50.6555,-96.51828 -74.76,-125.65568 -31.7254,-32.69213 -62.181,-61.75145 -103.1553,-85.97297"
     id="0x0C"
     inkscape:connector-curvature="0"
     sodipodi:nodetypes="ccccccccc"
     inkscape:label="#path4008" />
  <path
     style="fill:none;stroke:#000000;stroke-width:28;stroke-linecap:butt;stroke-linejoin:miter;stroke-miterlimit:0;stroke-opacity:1;stroke-dasharray:none"
     d="m 1754.0685,113.4607 c 46.5744,27.69593 70.1564,48.12953 87.3121,64.24902 29.7828,29.51576 57.8953,62.55369 83.7348,103.8995 27.8902,48.38224 51.3334,90.42855 61.9044,117.2338 18.1996,40.08204 25.4855,75.76636 31.6345,110.28661 l 5.9548,63.51715 0,135.47016"
     id="0x0D"
     inkscape:connector-curvature="0"
     sodipodi:nodetypes="ccccccc"
     inkscape:label="#path4010" />
  <path
     style="fill:none;stroke:#000000;stroke-width:28;stroke-linecap:butt;stroke-linejoin:miter;stroke-miterlimit:0;stroke-opacity:1;stroke-dasharray:none"
     d="m 2024.1128,717.04904 0,141.92112 c -2.0316,47.62657 -12.7656,98.57306 -20.0048,119.38534 -14.6172,52.895 -45.2232,107.6936 -67.0862,143.8441 -42.9856,74.6107 -76.34,104.3753 -84.6037,114.8961 -44.5228,43.0645 -68.8192,60.1753 -97.6329,76.0469"
     id="0x08"
     inkscape:connector-curvature="0"
     sodipodi:nodetypes="cccccc"
     inkscape:label="#path4012" />
  <path
     style="fill:none;stroke:#000000;stroke-width:28;stroke-linecap:butt;stroke-linejoin:miter;stroke-miterlimit:0;stroke-opacity:1;stroke-dasharray:none"
     d="m 2107.5966,1408.0517 0,-948.29673 c -0.3892,-25.3385 -6.0844,-52.54398 -14.9126,-80.85189 -5.6638,-24.6907 -22.6917,-54.49345 -37.1939,-83.15998 -19.6989,-28.06227 -41.5636,-52.65924 -64.5631,-75.44048 -23.1007,-18.482 -45.3132,-34.59534 -65.6156,-45.61518 L 1816.8876,113.2824"
     id="0x09"
     inkscape:connector-curvature="0"
     sodipodi:nodetypes="ccccccc"
     inkscape:label="#path4014" />
  <path
     style="fill:none;stroke:#000000;stroke-width:28;stroke-linecap:butt;stroke-linejoin:miter;stroke-opacity:1;stroke-miterlimit:0;stroke-dasharray:none"
     d="m 1446.352,142.75682 -563.08427,0"
     id="0x16"
     inkscape:connector-curvature="0"
     inkscape:label="#path4016" />
  <path
     style="fill:none;stroke:#000000;stroke-width:28;stroke-linecap:butt;stroke-linejoin:miter;stroke-miterlimit:0;stroke-opacity:1;stroke-dasharray:none"
     d="m 1502.8256,46.273231 -329.4629,0 c -77.908,4.744128 -133.2294,21.023552 -172.285,30.867909 l -125.44174,34.03594"
     id="0x0E"
     inkscape:connector-curvature="0"
     sodipodi:nodetypes="cccc"
     inkscape:label="#path4018">
    <title
       id="title3013">0x0E</title>
  </path>
  <path
     style="fill:none;stroke:#000000;stroke-width:28;stroke-linecap:butt;stroke-linejoin:miter;stroke-miterlimit:0;stroke-opacity:1;stroke-dasharray:none"
     d="m 1049.7822,309.11976 c 17.6387,-15.68811 42.7397,-28.05237 71.953,-43.66804 36.7567,-17.36455 197.8904,-55.2684 299.461,-83.33615 23.9092,-5.78765 50.3782,-9.01547 80.8301,-8.26043"
     id="0x0F"
     inkscape:connector-curvature="0"
     sodipodi:nodetypes="cccc"
     inkscape:label="#path4020" />
  <path
     style="fill:none;stroke:#000000;stroke-width:28;stroke-linecap:butt;stroke-linejoin:miter;stroke-miterlimit:0;stroke-opacity:1;stroke-dasharray:none"
     d="m 215.8826,841.63396 c 10.56861,23.05407 40.71532,57.74083 67.98416,84.47581 52.3249,46.13394 102.30181,67.05996 145.24916,78.80913 49.39321,13.6313 96.18269,18.4885 140.72291,10.8423 65.02289,-4.3231 124.39017,-33.97156 187.03986,-80.57311 48.0593,-39.2135 83.29427,-92.70825 105.61495,-150.74755 18.19608,-36.76419 23.57974,-88.52379 23.87912,-166.20102 5.65755,-79.16194 25.17387,-116.74758 42.4451,-161.06846 15.94674,-38.14137 82.18734,-123.81619 114.51884,-142.49774"
     id="0x11"
     inkscape:connector-curvature="0"
     sodipodi:nodetypes="ccccccccc"
     inkscape:label="#path4022" />
  <path
     style="fill:#666666;stroke:#a8a8a8;stroke-width:28;stroke-linecap:butt;stroke-linejoin:miter;stroke-miterlimit:0;stroke-opacity:1;stroke-dasharray:none"
     d="m 638.43704,142.93226 35.96581,0 42.4572,-1.57899 c 24.60075,-1.19175 62.03315,-6.91587 103.15624,-16.05578 l 51.22928,-12.74775 -24.56768,5.64459"
     id="0x87K"
     inkscape:connector-curvature="0"
     sodipodi:nodetypes="cccccc"
     inkscape:label="#path4026" />
  <path
     style="fill:none;stroke:#a8a8a8;stroke-width:28;stroke-linecap:butt;stroke-linejoin:miter;stroke-miterlimit:0;stroke-opacity:1;stroke-dasharray:none"
     d="M 871.64464,112.44904 641.32159,174.59171"
     id="0x87E"
     inkscape:connector-curvature="0"
     sodipodi:nodetypes="cc"
     inkscape:label="#path4028" />
  <path
     style="fill:none;stroke:#a8a8a8;stroke-width:28;stroke-linecap:butt;stroke-linejoin:miter;stroke-miterlimit:0;stroke-opacity:1;stroke-dasharray:none"
     d="M 640.28542,174.97813 C 708.78927,152.1658 788.25561,143.68359 874.8527,142.69662"
     id="0x86K"
     inkscape:connector-curvature="0"
     sodipodi:nodetypes="cc"
     inkscape:label="#path4030" />
  <path
     style="fill:none;stroke:#000000;stroke-width:28;stroke-linecap:butt;stroke-linejoin:miter;stroke-miterlimit:0;stroke-opacity:1;stroke-dasharray:none"
     d="M 874.84647,142.75681 638.52101,143.0457"
     id="0x86E"
     inkscape:connector-curvature="0"
     sodipodi:nodetypes="cc"
     inkscape:label="#path4032" />
  <path
     style="fill:none;stroke:#a8a8a8;stroke-width:28;stroke-linecap:butt;stroke-linejoin:miter;stroke-miterlimit:0;stroke-opacity:1;stroke-dasharray:none"
     d="m 1511.2094,46.3272 c 31.8623,-0.07001 61.3059,2.854665 83.4282,7.071245 36.8274,5.441167 69.9995,17.670583 100.9725,29.47158 18.924,9.065362 38.1198,17.309095 53.2744,27.630945"
     id="0x81E"
     inkscape:connector-curvature="0"
     sodipodi:nodetypes="cccc"
     inkscape:label="#path4034" />
  <path
     style="fill:none;stroke:#000000;stroke-width:28;stroke-linecap:butt;stroke-linejoin:miter;stroke-miterlimit:0;stroke-opacity:1;stroke-dasharray:none"
     d="m 1811.9135,110.2866 c -29.4146,-17.370587 -57.7065,-29.786201 -86.5298,-41.807178 -43.553,-12.238697 -86.0148,-20.985356 -126.2686,-22.666255 -28.8563,-0.351837 -54.948,0.04756 -87.9945,0.708762"
     id="0x81K"
     inkscape:connector-curvature="0"
     sodipodi:nodetypes="cccc"
     inkscape:label="#path4036" />
  <path
     style="fill:none;stroke:#a8a8a8;stroke-width:28;stroke-linecap:butt;stroke-linejoin:miter;stroke-miterlimit:0;stroke-opacity:1;stroke-dasharray:none"
     d="m 1717.4052,229.61615 c -24.3212,-14.78206 -48.474,-25.26848 -69.8051,-31.99347 -28.7195,-9.15788 -51.6745,-16.81149 -89.5853,-21.38917 -12.5787,-1.66413 -34.7738,-2.58517 -48.9801,-2.50243"
     id="0x82E"
     inkscape:connector-curvature="0"
     sodipodi:nodetypes="cccc"
     inkscape:label="#path4038" />
  <path
     style="fill:none;stroke:#000000;stroke-width:28;stroke-linecap:butt;stroke-linejoin:miter;stroke-miterlimit:0;stroke-opacity:1;stroke-dasharray:none"
     d="m 1455.5599,142.16924 37.093,0.74434 c 49.3602,4.21078 76.5081,15.80052 110.1626,26.05195 18.186,7.43657 40.1618,17.27331 73.5061,35.49646 l 41.0917,25.23306"
     id="0x82K"
     inkscape:connector-curvature="0"
     sodipodi:nodetypes="ccccc"
     inkscape:label="#path4040" />
  <path
     style="fill:none;stroke:#a8a8a8;stroke-width:28;stroke-linecap:butt;stroke-linejoin:miter;stroke-miterlimit:0;stroke-opacity:1;stroke-dasharray:none"
     d="m 1488.3022,1403.1051 c 14.5067,-0.052 27.9371,-0.8743 38.0605,-1.1678 27.5884,-2.8377 52.7107,-9.7853 78.4377,-15.7252 35.1751,-10.6834 55.4002,-19.6116 71.5471,-28.6784 20.7918,-10.8262 47.1719,-26.2246 72.9172,-41.1036"
     id="0x83K"
     inkscape:connector-curvature="0"
     sodipodi:nodetypes="ccccc"
     inkscape:label="#path4042" />
  <path
     style="fill:none;stroke:#000000;stroke-width:28;stroke-linecap:butt;stroke-linejoin:miter;stroke-miterlimit:0;stroke-opacity:1;stroke-dasharray:none"
     d="m 1540.9158,1370.6823 c 101.9387,2.3142 173.2159,-33.7521 208.3386,-54.2996"
     id="0x83E"
     inkscape:connector-curvature="0"
     sodipodi:nodetypes="cc"
     inkscape:label="#path4044" />
  <path
     style="fill:none;stroke:#a8a8a8;stroke-width:28;stroke-linecap:butt;stroke-linejoin:miter;stroke-miterlimit:0;stroke-opacity:1;stroke-dasharray:none"
     d="m 45.770772,859.34857 c -0.29927,39.74634 -1.133166,92.48103 1.991145,115.98699 3.844876,28.80784 7.988135,43.97634 12.729059,64.91184 l 12.454497,43.0177 c 5.192312,14.3735 11.515304,29.7913 19.352881,45.1567 5.009688,11.4122 10.920176,21.3033 16.535906,32.1094"
     id="0x85K"
     inkscape:connector-curvature="0"
     sodipodi:nodetypes="cccccc"
     inkscape:label="#path4046" />
  <path
     style="fill:none;stroke:#000000;stroke-width:28;stroke-linecap:butt;stroke-linejoin:miter;stroke-miterlimit:0;stroke-opacity:1;stroke-dasharray:none"
     d="m 45.615177,859.61687 c 0.307401,19.39308 -0.555327,36.4459 4.779531,65.8939 5.785871,38.87247 15.638738,76.50413 29.34413,110.77723 8.197194,16.1864 15.691011,34.3235 29.891152,61.3615"
     id="0x85E"
     inkscape:connector-curvature="0"
     sodipodi:nodetypes="cccc"
     inkscape:label="#path4048" />
  <path
     style="fill:none;stroke:#000000;stroke-width:28;stroke-linecap:butt;stroke-linejoin:miter;stroke-miterlimit:0;stroke-opacity:1;stroke-dasharray:none"
     d="M 212.90007,837.07245 C 168.44498,758.84254 156.01355,673.79854 156.97762,629.04092"
     id="0x84E"
     inkscape:connector-curvature="0"
     sodipodi:nodetypes="cc"
     inkscape:label="#path4052" />
  <rect
     style="stroke:none;fill:#000000;fill-opacity:1"
     id="0x16L"
     width="130.00293"
     height="38.948372"
     x="1146.8708"
     y="82.404449"
     ry="0"
     inkscape:label="#rect5240" />
  <text
     xml:space="preserve"
     style="font-size:40px;font-style:normal;font-weight:normal;line-height:125%;letter-spacing:0px;word-spacing:0px;fill:#ffffff;fill-opacity:1;stroke:none;font-family:Sans"
     x="1168.4503"
     y="113.94925"
     id="text5244"
     sodipodi:linespacing="125%"><tspan
       sodipodi:role="line"
       id="tspan5246"
       x="1168.4503"
       y="113.94925">Loco</tspan></text>
  <rect
     style="fill:#000000;fill-opacity:1;stroke:none"
     id="0x0FL"
     width="130.00293"
     height="38.948372"
     x="1106.4563"
     y="561.69324"
     ry="0"
     inkscape:label="#rect5240"
     transform="matrix(0.96592583,-0.25881904,0.25881904,0.96592583,0,0)" />
  <text
     xml:space="preserve"
     style="font-size:40px;font-style:normal;font-weight:normal;line-height:125%;letter-spacing:0px;word-spacing:0px;fill:#ffffff;fill-opacity:1;stroke:none;font-family:Sans"
     x="1128.0358"
     y="593.2381"
     id="text5244-4"
     sodipodi:linespacing="125%"
     transform="matrix(0.96592583,-0.25881904,0.25881904,0.96592583,0,0)"><tspan
       sodipodi:role="line"
       id="tspan5246-8"
       x="1128.0358"
       y="593.2381">Loco</tspan></text>
  <rect
     style="fill:#000000;fill-opacity:1;stroke:none"
     id="0x82L"
     width="130.00293"
     height="38.948372"
     x="1518.282"
     y="-451.1954"
     ry="0"
     inkscape:label="#rect5240"
     transform="matrix(0.93969262,0.34202015,-0.34202015,0.93969262,0,0)" />
  <text
     xml:space="preserve"
     style="font-size:40px;font-style:normal;font-weight:normal;line-height:125%;letter-spacing:0px;word-spacing:0px;fill:#ffffff;fill-opacity:1;stroke:none;font-family:Sans"
     x="1539.8615"
     y="-419.6506"
     id="text5244-4-7"
     sodipodi:linespacing="125%"
     transform="matrix(0.93969262,0.34202015,-0.34202015,0.93969262,0,0)"><tspan
       sodipodi:role="line"
       id="tspan5246-8-6"
       x="1539.8615"
       y="-419.6506">Loco</tspan></text>
  <rect
     style="fill:#000000;fill-opacity:1;stroke:none"
     id="0x11L"
     width="130.00293"
     height="38.948372"
     x="-584.29779"
     y="967.36139"
     ry="0"
     inkscape:label="#rect5240"
     transform="matrix(0.25881906,-0.96592582,0.96592582,0.25881906,0,0)" />
  <text
     xml:space="preserve"
     style="font-size:40px;font-style:normal;font-weight:normal;line-height:125%;letter-spacing:0px;word-spacing:0px;fill:#ffffff;fill-opacity:1;stroke:none;font-family:Sans"
     x="-564.12189"
     y="1000.3096"
     id="text5244-4-7-8"
     sodipodi:linespacing="125%"
     transform="matrix(0.25881906,-0.96592582,0.96592582,0.25881906,0,0)"><tspan
       sodipodi:role="line"
       id="tspan5246-8-6-7"
       x="-564.12189"
       y="1000.3096">Loco</tspan></text>
  <rect
     style="fill:#000000;fill-opacity:1;stroke:none"
     id="0x0CL"
     width="130.00293"
     height="38.948372"
     x="-728.82391"
     y="1868.2924"
     ry="0"
     inkscape:label="#rect5240"
     transform="matrix(1.7020376e-8,-1,1,1.7020376e-8,0,0)" />
  <text
     xml:space="preserve"
     style="font-size:40px;font-style:normal;font-weight:normal;line-height:125%;letter-spacing:0px;word-spacing:0px;fill:#ffffff;fill-opacity:1;stroke:none;font-family:Sans"
     x="-707.24445"
     y="1899.8373"
     id="text5244-4-0"
     sodipodi:linespacing="125%"
     transform="matrix(1.7020376e-8,-1,1,1.7020376e-8,0,0)"><tspan
       sodipodi:role="line"
       id="tspan5246-8-9"
       x="-707.24445"
       y="1899.8373">Loco</tspan></text>
  <rect
     style="fill:#000000;fill-opacity:1;stroke:none"
     id="0x0AL"
     width="130.00293"
     height="38.948372"
     x="952.49744"
     y="1074.188"
     ry="0"
     inkscape:label="#rect5240" />
  <text
     xml:space="preserve"
     style="font-size:40px;font-style:normal;font-weight:normal;line-height:125%;letter-spacing:0px;word-spacing:0px;fill:#ffffff;fill-opacity:1;stroke:none;font-family:Sans"
     x="974.0769"
     y="1105.7328"
     id="text5244-4-06"
     sodipodi:linespacing="125%"><tspan
       sodipodi:role="line"
       id="tspan5246-8-1"
       x="974.0769"
       y="1105.7328">Loco</tspan></text>
  <rect
     style="fill:#000000;fill-opacity:1;stroke:none"
     id="0x84L"
     width="130.00293"
     height="38.948372"
     x="690.09241"
     y="87.479858"
     ry="0"
     inkscape:label="#rect5240"
     transform="matrix(0.42261827,0.90630778,-0.90630778,0.42261827,0,0)" />
  <text
     xml:space="preserve"
     style="font-size:40px;font-style:normal;font-weight:normal;line-height:125%;letter-spacing:0px;word-spacing:0px;fill:#ffffff;fill-opacity:1;stroke:none;font-family:Sans"
     x="711.67188"
     y="119.02466"
     id="text5244-4-8"
     sodipodi:linespacing="125%"
     transform="matrix(0.42261827,0.90630778,-0.90630778,0.42261827,0,0)"><tspan
       sodipodi:role="line"
       id="tspan5246-8-93"
       x="711.67188"
       y="119.02466">Loco</tspan></text>
  <rect
     style="fill:#000000;fill-opacity:1;stroke:none"
     id="0x10L"
     width="130.00293"
     height="38.948372"
     x="-127.23019"
     y="463.87201"
     ry="0"
     inkscape:label="#rect5240"
     transform="matrix(0.70710678,-0.70710678,0.70710678,0.70710678,0,0)" />
  <text
     xml:space="preserve"
     style="font-size:40px;font-style:normal;font-weight:normal;line-height:125%;letter-spacing:0px;word-spacing:0px;fill:#ffffff;fill-opacity:1;stroke:none;font-family:Sans"
     x="-105.65073"
     y="495.41681"
     id="text5244-4-4"
     sodipodi:linespacing="125%"
     transform="matrix(0.70710678,-0.70710678,0.70710678,0.70710678,0,0)"><tspan
       sodipodi:role="line"
       id="tspan5246-8-60"
       x="-105.65073"
       y="495.41681">Loco</tspan></text>
  <rect
     style="fill:#000000;fill-opacity:1;stroke:none"
     id="0x15L"
     width="130.00293"
     height="38.948372"
     x="-156.14038"
     y="270.87823"
     ry="0"
     inkscape:label="#rect5240"
     transform="matrix(0.70710678,-0.70710678,0.70710678,0.70710678,0,0)" />
  <text
     xml:space="preserve"
     style="font-size:40px;font-style:normal;font-weight:normal;line-height:125%;letter-spacing:0px;word-spacing:0px;fill:#ffffff;fill-opacity:1;stroke:none;font-family:Sans"
     x="-134.56091"
     y="302.423"
     id="text5244-4-6"
     sodipodi:linespacing="125%"
     transform="matrix(0.70710678,-0.70710678,0.70710678,0.70710678,0,0)"><tspan
       sodipodi:role="line"
       id="tspan5246-8-18"
       x="-134.56091"
       y="302.423">Loco</tspan></text>
  <rect
     style="fill:#000000;fill-opacity:1;stroke:none"
     id="0x86L"
     width="130.00293"
     height="38.948372"
     x="661.1748"
     y="202.57861"
     ry="0"
     inkscape:label="#rect5240"
     transform="matrix(0.98480775,-0.17364818,0.17364818,0.98480775,0,0)" />
  <text
     xml:space="preserve"
     style="font-size:40px;font-style:normal;font-weight:normal;line-height:125%;letter-spacing:0px;word-spacing:0px;fill:#ffffff;fill-opacity:1;stroke:none;font-family:Sans"
     x="682.75427"
     y="234.12341"
     id="text5244-4-63"
     sodipodi:linespacing="125%"
     transform="matrix(0.98480775,-0.17364818,0.17364818,0.98480775,0,0)"><tspan
       sodipodi:role="line"
       id="tspan5246-8-7"
       x="682.75427"
       y="234.12341">Loco</tspan></text>
  <rect
     style="fill:#000000;fill-opacity:1;stroke:none"
     id="0x0EL"
     width="130.00293"
     height="38.948372"
     x="854.68011"
     y="281.51147"
     ry="0"
     inkscape:label="#rect5240"
     transform="matrix(0.9640954,-0.26555612,0.26555612,0.9640954,0,0)" />
  <text
     xml:space="preserve"
     style="font-size:40px;font-style:normal;font-weight:normal;line-height:125%;letter-spacing:0px;word-spacing:0px;fill:#ffffff;fill-opacity:1;stroke:none;font-family:Sans"
     x="876.25958"
     y="313.05627"
     id="text5244-4-82"
     sodipodi:linespacing="125%"
     transform="matrix(0.9640954,-0.26555612,0.26555612,0.9640954,0,0)"><tspan
       sodipodi:role="line"
       id="tspan5246-8-91"
       x="876.25958"
       y="313.05627">Loco</tspan></text>
  <rect
     style="fill:#000000;fill-opacity:1;stroke:none"
     id="0x09L"
     width="130.00293"
     height="38.948372"
     x="1448.4537"
     y="-1452.0242"
     ry="0"
     inkscape:label="#rect5240"
     transform="matrix(0.64278761,0.76604444,-0.76604444,0.64278761,0,0)" />
  <text
     xml:space="preserve"
     style="font-size:40px;font-style:normal;font-weight:normal;line-height:125%;letter-spacing:0px;word-spacing:0px;fill:#ffffff;fill-opacity:1;stroke:none;font-family:Sans"
     x="1470.0332"
     y="-1420.4794"
     id="text5244-4-9"
     sodipodi:linespacing="125%"
     transform="matrix(0.64278761,0.76604444,-0.76604444,0.64278761,0,0)"><tspan
       sodipodi:role="line"
       id="tspan5246-8-8"
       x="1470.0332"
       y="-1420.4794">Loco</tspan></text>
  <rect
     style="fill:#000000;fill-opacity:1;stroke:none"
     id="0x14L"
     width="130.00293"
     height="38.948372"
     x="493.60904"
     y="1253.4863"
     ry="0"
     inkscape:label="#rect5240" />
  <text
     xml:space="preserve"
     style="font-size:40px;font-style:normal;font-weight:normal;line-height:125%;letter-spacing:0px;word-spacing:0px;fill:#ffffff;fill-opacity:1;stroke:none;font-family:Sans"
     x="515.18854"
     y="1285.0311"
     id="text5244-4-76"
     sodipodi:linespacing="125%"><tspan
       sodipodi:role="line"
       id="tspan5246-8-3"
       x="515.18854"
       y="1285.0311">Loco</tspan></text>
  <rect
     style="fill:#000000;fill-opacity:1;stroke:none"
     id="0x17L"
     width="130.00293"
     height="38.948372"
     x="1024.202"
     y="1254.8193"
     ry="0"
     inkscape:label="#rect5240" />
  <text
     xml:space="preserve"
     style="font-size:40px;font-style:normal;font-weight:normal;line-height:125%;letter-spacing:0px;word-spacing:0px;fill:#ffffff;fill-opacity:1;stroke:none;font-family:Sans"
     x="1045.7815"
     y="1286.3641"
     id="text5244-4-5"
     sodipodi:linespacing="125%"><tspan
       sodipodi:role="line"
       id="tspan5246-8-4"
       x="1045.7815"
       y="1286.3641">Loco</tspan></text>
  <rect
     style="fill:#000000;fill-opacity:1;stroke:none"
     id="0x08L"
     width="130.00293"
     height="38.948372"
     x="-10.619577"
     y="2174.3123"
     ry="0"
     inkscape:label="#rect5240"
     transform="matrix(0.50000002,-0.86602539,0.86602539,0.50000002,0,0)" />
  <text
     xml:space="preserve"
     style="font-size:40px;font-style:normal;font-weight:normal;line-height:125%;letter-spacing:0px;word-spacing:0px;fill:#ffffff;fill-opacity:1;stroke:none;font-family:Sans"
     x="10.959883"
     y="2205.8572"
     id="text5244-4-09"
     sodipodi:linespacing="125%"
     transform="matrix(0.50000002,-0.86602539,0.86602539,0.50000002,0,0)"><tspan
       sodipodi:role="line"
       id="tspan5246-8-73"
       x="10.959883"
       y="2205.8572">Loco</tspan></text>
  <rect
     style="fill:#000000;fill-opacity:1;stroke:none"
     id="0x81L"
     width="130.00293"
     height="38.948372"
     x="1558.5723"
     y="-724.01581"
     ry="0"
     inkscape:label="#rect5240"
     transform="matrix(0.90630778,0.42261827,-0.42261827,0.90630778,0,0)" />
  <text
     xml:space="preserve"
     style="font-size:40px;font-style:normal;font-weight:normal;line-height:125%;letter-spacing:0px;word-spacing:0px;fill:#ffffff;fill-opacity:1;stroke:none;font-family:Sans"
     x="1580.1517"
     y="-692.47101"
     id="text5244-4-2"
     sodipodi:linespacing="125%"
     transform="matrix(0.90630778,0.42261827,-0.42261827,0.90630778,0,0)"><tspan
       sodipodi:role="line"
       id="tspan5246-8-601"
       x="1580.1517"
       y="-692.47101">Loco</tspan></text>
  <rect
     style="fill:#000000;fill-opacity:1;stroke:none"
     id="0x0DL"
     width="130.00293"
     height="38.948372"
     x="1103.578"
     y="-1694.531"
     ry="0"
     inkscape:label="#rect5240"
     transform="matrix(0.42261826,0.90630779,-0.90630779,0.42261826,0,0)" />
  <text
     xml:space="preserve"
     style="font-size:40px;font-style:normal;font-weight:normal;line-height:125%;letter-spacing:0px;word-spacing:0px;fill:#ffffff;fill-opacity:1;stroke:none;font-family:Sans"
     x="1125.1575"
     y="-1662.9863"
     id="text5244-4-75"
     sodipodi:linespacing="125%"
     transform="matrix(0.42261826,0.90630779,-0.90630779,0.42261826,0,0)"><tspan
       sodipodi:role="line"
       id="tspan5246-8-41"
       x="1125.1575"
       y="-1662.9863">Loco</tspan></text>
  <rect
     style="fill:#000000;fill-opacity:1;stroke:none"
     id="0x0BL"
     width="130.00293"
     height="38.948372"
     x="956.77844"
     y="1343.6537"
     ry="0"
     inkscape:label="#rect5240" />
  <text
     xml:space="preserve"
     style="font-size:40px;font-style:normal;font-weight:normal;line-height:125%;letter-spacing:0px;word-spacing:0px;fill:#ffffff;fill-opacity:1;stroke:none;font-family:Sans"
     x="978.35791"
     y="1375.1985"
     id="text5244-4-01"
     sodipodi:linespacing="125%"><tspan
       sodipodi:role="line"
       id="tspan5246-8-46"
       x="978.35791"
       y="1375.1985">Loco</tspan></text>
  <rect
     style="fill:#000000;fill-opacity:1;stroke:none"
     id="0x83L"
     width="130.00293"
     height="38.948372"
     x="1189.7354"
     y="1672.3767"
     ry="0"
     inkscape:label="#rect5240"
     transform="matrix(0.96592583,-0.25881904,0.25881904,0.96592583,0,0)" />
  <text
     xml:space="preserve"
     style="font-size:40px;font-style:normal;font-weight:normal;line-height:125%;letter-spacing:0px;word-spacing:0px;fill:#ffffff;fill-opacity:1;stroke:none;font-family:Sans"
     x="1211.3148"
     y="1703.9215"
     id="text5244-4-1"
     sodipodi:linespacing="125%"
     transform="matrix(0.96592583,-0.25881904,0.25881904,0.96592583,0,0)"><tspan
       sodipodi:role="line"
       id="tspan5246-8-77"
       x="1211.3148"
       y="1703.9215">Loco</tspan></text>
  <rect
     style="fill:#000000;fill-opacity:1;stroke:none"
     id="0x13L"
     width="130.00293"
     height="38.948372"
     x="499.22324"
     y="1344.7167"
     ry="0"
     inkscape:label="#rect5240" />
  <text
     xml:space="preserve"
     style="font-size:40px;font-style:normal;font-weight:normal;line-height:125%;letter-spacing:0px;word-spacing:0px;fill:#ffffff;fill-opacity:1;stroke:none;font-family:Sans"
     x="520.80267"
     y="1376.2615"
     id="text5244-4-3"
     sodipodi:linespacing="125%"><tspan
       sodipodi:role="line"
       id="tspan5246-8-35"
       x="520.80267"
       y="1376.2615">Loco</tspan></text>
  <rect
     style="fill:#000000;fill-opacity:1;stroke:none"
     id="0x85L"
     width="130.00293"
     height="38.948372"
     x="895.26221"
     y="210.54364"
     ry="0"
     inkscape:label="#rect5240"
     transform="matrix(0.34202016,0.93969262,-0.93969262,0.34202016,0,0)" />
  <text
     xml:space="preserve"
     style="font-size:40px;font-style:normal;font-weight:normal;line-height:125%;letter-spacing:0px;word-spacing:0px;fill:#ffffff;fill-opacity:1;stroke:none;font-family:Sans"
     x="916.84161"
     y="242.08846"
     id="text5244-4-98"
     sodipodi:linespacing="125%"
     transform="matrix(0.34202016,0.93969262,-0.93969262,0.34202016,0,0)"><tspan
       sodipodi:role="line"
       id="tspan5246-8-182"
       x="916.84161"
       y="242.08846">Loco</tspan></text>
</svg>
