<?xml version="1.0" encoding="utf-8"?>
<!-- Generator: Adobe Illustrator 21.0.0, SVG Export Plug-In . SVG Version: 6.00 Build 0)  -->
<svg version="1.1"
	 id="MoDeS3" inkscape:version="0.91 r13725" sodipodi:docname="layout-new-2.svg" xmlns:cc="http://creativecommons.org/ns#" xmlns:dc="http://purl.org/dc/elements/1.1/" xmlns:inkscape="http://www.inkscape.org/namespaces/inkscape" xmlns:rdf="http://www.w3.org/1999/02/22-rdf-syntax-ns#" xmlns:sodipodi="http://sodipodi.sourceforge.net/DTD/sodipodi-0.dtd" xmlns:svg="http://www.w3.org/2000/svg"
	 xmlns="http://www.w3.org/2000/svg" xmlns:xlink="http://www.w3.org/1999/xlink" x="0px" y="0px" width="7086.6px"
	 height="3968.5px" viewBox="0 0 7086.6 3968.5" style="enable-background:new 0 0 7086.6 3968.5;" xml:space="preserve">
<style type="text/css">
	.st0{fill:none;stroke:#000000;stroke-width:5;}
	.st1{fill:none;stroke:#FF00FF;stroke-width:5;}
</style>
<g id="segments">
	<path id="s02" class="st0" d="M417.9,1015.9c-0.3,0.5-0.6,1-0.9,1.5c-93.2,155.1-157.1,345.5-161.2,600V2209"/>
	<path id="s01" class="st0" d="M1456,420.8h-3.1c-186.3-3.8-382.1,42.5-600,160.8c-179.3,104.3-325.7,247.3-435,434.3"/>
	<path id="s12" class="st0" d="M2697.7,420.8H1456"/>
	<path id="s30" class="st0" d="M5661.5,3466.2c206-11.3,382-69.1,537.7-158.5c162.9-91.2,292.1-216.3,394.1-368.5"/>
	<path id="s19" class="st0" d="M3440.3,3468.2H4861"/>
	<path id="s07" class="st0" d="M1753.6,3468.2h1686.7"/>
	<path id="s05" class="st0" d="M465.8,2947.7c100.2,146.6,228.5,267.7,388.6,359.9c192.5,112.8,392.9,160.8,599.3,160.6h299.9"/>
	<path id="s08" class="st0" d="M1771.9,3245.1c-96.3-28.5-183.3-67.8-265.3-113c-175.1-104.5-321.6-243.4-433.9-435.3
		c-100-175.3-146.9-346.9-158.5-518.5"/>
	<path id="s13" class="st0" d="M3440.3,3293.5H2109c-125.7-0.6-236.5-18.6-337-48.4"/>
	<path id="s20" class="st0" d="M4216.7,3293.5h-776.4"/>
	<path id="s11" class="st0" d="M1132.3,1227.4c95-136,213-245,376.7-342.1c44.6-27.3,91.4-50.9,140.6-70.7
		c82.6-34.1,105.7-38.5,146.5-51.8l901.6-235.5"/>
	<path id="s29" class="st0" d="M6477.9,802.3c57.2,61.9,108.4,131.7,158.9,215c100.6,173.6,160.1,369.9,160.5,598.9l-0.4,609"/>
	<path id="s24" class="st0" d="M4928.4,420.8h674.3c246.5,2.7,436.5,66,597.8,160.2c112.2,68.7,200.3,137.9,277.3,221.3"/>
	<path id="s15" class="st0" d="M3501.7,420.8h1426.7"/>
	<path id="s31" class="st0" d="M5296.9,3643.8h302.7c213.9,2.9,412-52.6,597.3-158.3c122.6-74.8,267.6-178.6,396.4-370.6"/>
	<path id="s18" class="st0" d="M3440.3,3643.8h1856.6"/>
	<path id="s06" class="st0" d="M1753.6,3643.8h1686.7"/>
	<path id="s04" class="st0" d="M465.8,3123.3c105.3,154,236.3,272.8,389.6,361c151.7,80.7,315.2,154.3,594.9,159.4h303.3"/>
	<path id="s17" class="st0" d="M2249.7,901.3h1303.4"/>
	<path id="s10" class="st0" d="M1132.3,1405.9c92.7-131.4,209.7-250.1,375.5-343.5c181.7-108.7,383-159.4,600.9-161h141"/>
	<path id="s22" class="st0" d="M4357.1,1012c177.5,60.3,330.1,156.6,459.7,286.2c146.1,147.7,246.1,310.7,310.1,537.1l254.1,948.4"
		/>
	<path id="s26" class="st0" d="M6069.9,2506.1c-23.2,62.8-52,125.7-86.7,188.6c-101,178.3-248,324.6-438.6,438.9
		c-159.2,88.9-334.2,148.5-535.9,158.4"/>
	<path id="s27" class="st0" d="M5742,1203.3c101.2,89.8,177.8,189.6,240,295.4c105.2,183.3,160.1,382.1,160.7,597.4
		c1.7,134.9-22,272.1-72.9,409.9"/>
	<path id="s23" class="st0" d="M4357.1,901.3h591.4c207.1-0.7,405.9,51.6,595.9,159.7c75,43.7,140.3,91.4,197.7,142.3"/>
</g>
<g id="turnouts">
	<rect id="s28" x="6593.3" y="2225.2" class="st1" width="304.7" height="944.2"/>
	<rect id="s32" x="4861" y="3380.8" class="st1" width="800.5" height="138.9"/>
	<rect id="s25" x="4216.7" y="3198.1" class="st1" width="792" height="182.8"/>
	<rect id="s03" x="170.6" y="2209" class="st1" width="295.2" height="981.4"/>
	<rect id="s21" x="3553.1" y="810.6" class="st1" width="804" height="278.8"/>
	<rect id="s14" x="2697.7" y="325.1" class="st1" width="804" height="278.8"/>
	<rect id="s09" x="839" y="1148.2" class="st1" width="293.3" height="1030.1"/>
</g>
</svg>
